<?xml version="1.0" encoding="UTF-8"?>
<svg version="1.1" viewBox="0 0 1600 1536" width="1280" height="1280" xmlns="http://www.w3.org/2000/svg">
<path transform="translate(178,76)" d="m0 0c33.2-0.114 66.3-0.203 99.5-0.255 3.91-0.00625 7.83-0.0127 11.7-0.0193 1.17-0.00197 1.17-0.00197 2.36-0.00397 12.6-0.0218 25.2-0.0612 37.9-0.107 12.9-0.0467 25.9-0.0745 38.8-0.0847 7.99-0.00687 16-0.0286 24-0.0691 6.13-0.0295 12.3-0.0327 18.4-0.026 2.52-0.00138 5.03-0.0114 7.55-0.0305 3.43-0.0248 6.85-0.0189 10.3-0.00525 1-0.0146 2-0.0291 3.03-0.0441 4.68 0.0507 6.76 0.0809 10.5 3.06 0.961 1.28 0.961 1.28 1.94 2.58 0.522 0.643 1.04 1.29 1.58 1.95 3.42 4.83 3.42 4.83 3.42 7.05 0.99 0.33 1.98 0.66 3 1 0.702 1.32 1.37 2.65 2 4 0.659 0.652 0.659 0.652 1.33 1.32 2.06 2.08 3.67 4.35 5.36 6.75 0.934 1.32 0.934 1.32 1.89 2.66 1.43 2.28 1.43 2.28 1.43 4.28 0.99 0.33 1.98 0.66 3 1 0.702 1.32 1.37 2.65 2 4 0.433 0.428 0.866 0.856 1.31 1.3 2.17 2.19 3.88 4.58 5.69 7.08 0.681 0.936 1.36 1.87 2.06 2.84 1.94 2.79 1.94 2.79 3.5 5.45 1.33 2.17 2.63 3.58 4.44 5.34 1.26 1.66 2.49 3.35 3.69 5.06 0.934 1.32 0.934 1.32 1.89 2.66 1.43 2.28 1.43 2.28 1.43 4.28 0.99 0.33 1.98 0.66 3 1 0.702 1.32 1.37 2.65 2 4 0.659 0.652 0.659 0.652 1.33 1.32 2.06 2.08 3.67 4.35 5.36 6.75 0.934 1.32 0.934 1.32 1.89 2.66 1.43 2.28 1.43 2.28 1.43 4.28 0.99 0.33 1.98 0.66 3 1 0.702 1.32 1.37 2.65 2 4 0.443 0.425 0.887 0.851 1.34 1.29 2.87 2.97 4.79 6.61 6.94 10.1 1.47 2.22 2.83 3.76 4.72 5.59 1.55 1.94 3.07 3.9 4.56 5.88 0.785 1.03 1.57 2.06 2.38 3.12 2.06 3.01 2.06 3.01 3.15 5.83 0.451 1.08 0.451 1.08 0.91 2.18 0.99 0.33 1.98 0.66 3 1 0.926 1.3 1.84 2.62 2.68 3.98 2.39 3.67 5.08 7.13 7.71 10.6 1.61 2.39 1.61 2.39 1.61 4.39 0.99 0.33 1.98 0.66 3 1 0.957 1.33 1.9 2.68 2.77 4.07 1.47 2.32 3.03 4.56 4.6 6.81 0.597 0.853 1.19 1.71 1.81 2.59 2.18 3.04 4.44 6 6.75 8.95 1.07 1.59 1.07 1.59 1.07 3.59h2c0.91 1.3 1.81 2.6 2.65 3.94 2.41 3.67 5.11 7.15 7.74 10.7 1.61 2.39 1.61 2.39 1.61 4.39 0.99 0.33 1.98 0.66 3 1 0.93 1.31 1.85 2.63 2.7 3.99 1.68 2.59 3.48 5.08 5.3 7.57 0.66 0.909 1.32 1.82 2 2.75 1.31 1.76 2.65 3.49 4.02 5.2 2 2.5 3.88 5.06 5.73 7.67 0.614 0.86 1.23 1.72 1.86 2.61 1.39 2.21 1.39 2.21 1.39 4.21 0.99 0.33 1.98 0.66 3 1 0.702 1.32 1.37 2.65 2 4 0.659 0.652 0.659 0.652 1.33 1.32 2.06 2.08 3.67 4.35 5.36 6.75 0.623 0.878 1.25 1.76 1.89 2.66 1.43 2.28 1.43 2.28 1.43 4.28 0.99 0.33 1.98 0.66 3 1 1.37 1.97 2.7 3.98 4 6 0.982 1.02 1.98 2.02 3 3 0.33 0.66 0.66 1.32 1 2h2c0.0619 0.701 0.124 1.4 0.188 2.12 0.883 3.13 2.31 4.76 4.39 7.19 2.4 2.86 4.56 5.9 6.73 8.94 0.454 0.624 0.909 1.25 1.38 1.89 3.31 4.62 3.31 4.62 3.31 6.86 0.99 0.33 1.98 0.66 3 1 2 2.75 2 2.75 4 6 0.578 0.908 1.16 1.82 1.75 2.75 1.25 2.25 1.25 2.25 1.25 4.25 0.598 0.251 1.2 0.503 1.81 0.761 2.49 1.41 3.55 2.72 5.18 5.05 0.538 0.761 1.08 1.52 1.63 2.3 0.559 0.806 1.12 1.61 1.69 2.44 1.16 1.64 2.32 3.27 3.48 4.91 0.553 0.784 1.11 1.57 1.68 2.38 3.26 4.57 6.56 9.18 10.5 13.2 0.289 0.99 0.578 1.98 0.875 3 0.794 3.08 0.794 3.08 3.06 4.12 0.681 0.289 1.36 0.578 2.06 0.875 1.62 2 1.62 2 3 4l2 2 1 3 2 2c0.981 1.74 1.96 3.48 2.9 5.25 1.18 1.88 2.52 3.19 4.1 4.75 1.15 1.52 2.27 3.07 3.38 4.62 3.6 5.01 7.31 9.92 11.1 14.8 3.95 5.15 7.91 10.3 11.8 15.5l2.14 2.84c1.61 2.22 1.61 2.22 2.61 4.22l2-1c2 3.75 2 3.75 2 6 1.62 2.38 3.27 4.69 5 7l1.51 2.03c1.49 2 2.99 3.98 4.49 5.97 0.794 1.05 1.59 2.1 2.41 3.18 3.51 4.95 3.51 4.95 8.59 7.82l0.25 2.25c0.902 3.31 2.29 4.43 4.75 6.75 0.291 0.59 0.583 1.18 0.883 1.79 1.4 2.77 3.17 5.06 5.05 7.52 2.71 3.56 5.39 7.13 8 10.8 0.489 0.682 0.979 1.36 1.48 2.07 0.961 1.34 1.92 2.69 2.86 4.04 2.65 3.8 2.65 3.8 6.72 5.81l0.375 1.69c0.984 3.64 2.99 5.68 5.62 8.31 3.68 1.1 5.35 1.22 9 0 1.11-2.39 1.11-2.39 2-5l2-3h2c0.33-1.32 0.66-2.64 1-4h2c0.66-1.65 1.32-3.3 2-5h2v-3h2v-3h2c0.267-0.576 0.534-1.15 0.809-1.75 1.62-3.06 3.72-5.63 5.85-8.35 1.52-1.97 1.52-1.97 2.34-4.9h2v-2h2c0.309-0.784 0.619-1.57 0.938-2.38 1.06-2.62 1.06-2.62 2.06-4.62h2v-2h2c0.144-0.619 0.289-1.24 0.438-1.88 0.562-2.12 0.562-2.12 1.56-4.12h2l2-5h2c0.248-0.722 0.495-1.44 0.75-2.19 1.36-3.06 3.14-5.23 5.25-7.81l1-3h2v-2h2l0.781-2.17c1.29-3 2.85-5.47 4.72-8.14 0.608-0.883 1.22-1.77 1.84-2.68 0.547-0.664 1.09-1.33 1.66-2.01h2c0.404-0.866 0.404-0.866 0.816-1.75 1.2-2.28 2.55-4.21 4.12-6.25 0.504-0.66 1.01-1.32 1.53-2 0.507-0.66 1.01-1.32 1.54-2 0.517-0.742 1.03-1.48 1.57-2.25 0.473-0.578 0.946-1.16 1.43-1.75h2l0.316-1.7c0.81-2.72 2.05-4.69 3.62-7.05 0.525-0.799 1.05-1.6 1.59-2.42 0.729-0.905 0.729-0.905 1.47-1.83h2v-2h2c0.155-0.959 0.155-0.959 0.312-1.94l0.688-2.06c0.99-0.33 1.98-0.66 3-1 0.377-1.32 0.702-2.66 1-4 1.34-2.36 1.34-2.36 2.94-4.75 0.525-0.799 1.05-1.6 1.59-2.42 0.729-0.905 0.729-0.905 1.47-1.83h2l0.875-2.31c1.12-2.69 1.12-2.69 3.12-5.69h2l2-5h2c0.309-0.784 0.619-1.57 0.938-2.38 1.06-2.63 1.06-2.63 2.06-4.62h2l0.875-2.31c1.13-2.69 1.13-2.69 3.12-5.69h2l0.766-2.2c1.32-3 2.88-5.05 4.98-7.55 3.34-4.04 6.26-8.18 9.02-12.6 0.607-0.801 0.607-0.801 1.23-1.62h2l2-6h2v-2h2l0.688-2.06c1.62-3.64 3.64-6.97 6.31-9.94h2v-3h2l2-5h2c0.268-0.928 0.536-1.86 0.812-2.81 1.14-3.07 1.87-4.06 4.19-6.19 1.18-2.1 1.18-2.1 2-4h2c0.186-0.66 0.371-1.32 0.562-2 1.72-3.6 4.02-6.07 6.69-9 1.54-1.77 2.81-3.52 4.06-5.5l1.69-2.5h2c0.104-0.562 0.209-1.12 0.316-1.7 0.81-2.72 2.05-4.69 3.62-7.05 0.525-0.799 1.05-1.6 1.59-2.42 0.729-0.905 0.729-0.905 1.47-1.83h2v-2h2c0.0838-0.557 0.168-1.11 0.254-1.69 0.979-3.03 2.63-4.88 4.68-7.31 2.44-2.9 4.53-5.53 6.06-9h2c0.254-0.728 0.508-1.46 0.77-2.21 1.31-2.97 2.83-5 4.92-7.48 4.81-5.86 9.11-12 13.3-18.3h2l0.781-2.17c1.29-3 2.85-5.47 4.72-8.14 0.608-0.883 1.22-1.77 1.84-2.68 0.547-0.664 1.09-1.33 1.66-2.01h2c0.33-1.32 0.66-2.64 1-4h2c0.268-0.763 0.536-1.53 0.812-2.31 1.15-2.61 2.17-3.76 4.19-5.69 0.33-0.99 0.66-1.98 1-3h2c0.268-0.557 0.536-1.11 0.812-1.69 1.3-2.52 2.61-4.95 4.19-7.31h2c0.289-0.763 0.577-1.53 0.875-2.31 1.12-2.69 1.12-2.69 3.12-5.69h2c0.227-0.681 0.454-1.36 0.688-2.06 1.62-3.64 3.64-6.97 6.31-9.94h2c0.289-0.763 0.577-1.53 0.875-2.31 1.12-2.69 1.12-2.69 3.12-5.69h2c0.248-0.701 0.495-1.4 0.75-2.12 3.47-7.99 3.47-7.99 7.25-9.88 1.01-1.66 2.01-3.33 3-5 0.701-0.866 1.4-1.73 2.12-2.62 2.04-2.31 2.04-2.31 2.88-5.38 0.978-1.02 1.98-2.02 3-3 0.773-1.08 0.773-1.08 1.56-2.19 0.474-0.598 0.949-1.2 1.44-1.81h2c0.104-0.562 0.209-1.12 0.316-1.7 0.81-2.72 2.05-4.69 3.62-7.05 0.787-1.2 0.787-1.2 1.59-2.42 0.486-0.603 0.972-1.21 1.47-1.83h2v-2h2c0.103-0.639 0.206-1.28 0.312-1.94 0.227-0.681 0.454-1.36 0.688-2.06 1.49-0.495 1.49-0.495 3-1 0.69-1.66 1.35-3.33 2-5 1.32-1.68 2.65-3.35 4-5 0.33-0.99 0.66-1.98 1-3h2v-2h2c0.107-0.579 0.213-1.16 0.323-1.75 0.775-2.57 1.85-4.08 3.51-6.18 0.57-0.732 1.14-1.46 1.73-2.22 0.598-0.755 1.2-1.51 1.81-2.29 4.47-5.61 4.47-5.61 8.41-11.6 0.4-0.648 0.799-1.3 1.21-1.96h2c0.402-1.21 0.402-1.21 0.812-2.44 0.588-1.27 0.588-1.27 1.19-2.56 1.49-0.495 1.49-0.495 3-1 0.402-1.05 0.402-1.05 0.812-2.12 1.68-4.07 3.69-7.14 7.19-9.88 3.52-1.01 6.92-0.929 10.6-0.862 1.06-0.0081 2.13-0.0162 3.22-0.0245 3.57-0.0186 7.13 0.0129 10.7 0.0442 2.56-0.00294 5.11-0.00891 7.67-0.0177 6.22-0.0133 12.4 0.00586 18.7 0.04 7.24 0.0383 14.5 0.0396 21.7 0.0393 12.9 6.87e-4 25.8 0.0348 38.8 0.0879 12.5 0.0515 25.1 0.0798 37.6 0.082 1.16 2.14e-4 1.16 2.14e-4 2.34 4.33e-4 0.771 1.39e-4 1.54 2.77e-4 2.34 4.2e-4 1.55 2.9e-4 3.11 5.93e-4 4.66 9.08e-4 0.766 1.55e-4 1.53 3.1e-4 2.32 4.7e-4 12 0.00344 23.9 0.029 35.9 0.0564 4.33 0.00961 8.67 0.0157 13 0.0193 7.51 0.00619 15 0.0274 22.5 0.0655 2.5 0.0104 5 0.0157 7.49 0.0156 3.4 7.64e-4 6.8 0.0199 10.2 0.044 0.996-0.00396 1.99-0.00793 3.02-0.012 1.36 0.0154 1.36 0.0154 2.76 0.0312 0.785 0.00266 1.57 0.00531 2.38 0.00805 2.69 0.475 4.11 1.62 6.16 3.38-0.929 2.07-1.73 3.73-3.36 5.33-1.99 2.02-3.48 4.2-5.08 6.54-2.41 3.49-4.88 6.85-7.56 10.1-0.66 0.99-1.32 1.98-2 3h-2c-0.269 0.73-0.539 1.46-0.816 2.21-1.15 2.72-2.47 4.97-4.12 7.41-0.504 0.755-1.01 1.51-1.53 2.29-1.4 1.9-2.86 3.44-4.54 5.09-0.66 0.99-1.32 1.98-2 3h-2c-0.269 0.73-0.539 1.46-0.816 2.21-1.15 2.72-2.47 4.97-4.12 7.41-0.504 0.755-1.01 1.51-1.53 2.29-1.4 1.9-2.86 3.44-4.54 5.09-0.66 0.99-1.32 1.98-2 3h-2c-0.227 0.866-0.454 1.73-0.688 2.62-1.22 3.14-2.54 5.05-4.75 7.54-4.39 5.15-8.31 10.8-11.9 16.5l-1.62 2.31h-2c-0.66 1.65-1.32 3.3-2 5h-2c-0.227 0.866-0.454 1.73-0.688 2.62-1.56 4.02-3.46 6.16-6.31 9.38-0.66 0.99-1.32 1.98-2 3h-2c-0.66 1.65-1.32 3.3-2 5h-2c-0.227 0.866-0.454 1.73-0.688 2.62-1.52 3.9-3.54 6.27-6.31 9.38-3.55 4.26-6.42 8.76-9.32 13.5-1.44 2.16-2.83 3.74-4.68 5.52l-2 3h-2c-0.246 0.71-0.492 1.42-0.746 2.15-1.41 3.21-3.17 5.63-5.32 8.41-0.814 1.06-1.63 2.13-2.44 3.19-0.415 0.539-0.83 1.08-1.26 1.63-1.93 2.52-3.83 5.07-5.74 7.61-2.3 3.07-4.61 6.15-6.93 9.21l-2.39 3.16c-0.708 0.936-1.42 1.87-2.14 2.84-1.46 2-2.85 4.05-4.18 6.14-0.615 0.874-1.23 1.75-1.86 2.65h-2c-0.244 0.708-0.487 1.42-0.738 2.14-1.44 3.26-3.26 5.73-5.45 8.54-3.64 4.74-7.09 9.57-10.4 14.5-0.698 0.874-0.698 0.874-1.41 1.77h-2c-0.402 1.11-0.402 1.11-0.812 2.25-1.14 2.64-2.28 4.61-4.19 6.75h-2l-0.281 1.71c-0.896 2.86-2.33 4.6-4.22 6.91-2.5 3.03-2.5 3.03-4.5 6.38h-2c-0.206 0.66-0.412 1.32-0.625 2-1.6 3.49-3.68 6.22-6.04 9.23-1.4 1.74-1.4 1.74-2.34 3.77h-2c-0.248 0.701-0.495 1.4-0.75 2.12-1.42 3.27-3.12 6.02-5.25 8.88h-2c-0.237 0.71-0.474 1.42-0.719 2.15-1.5 3.32-3.41 5.65-5.78 8.41-2.6 3.04-4.91 5.76-6.5 9.44h-2c-0.248 0.536-0.495 1.07-0.75 1.62-1.55 2.94-3.39 5.62-5.25 8.38l-1.5 2.62c-1.5 2.38-1.5 2.38-3.33 4.18-2.41 2.44-4.38 5.01-6.42 7.76l-2.37 3.2c-0.794 1.08-1.59 2.16-2.38 3.24-0.745 1.01-1.49 2.02-2.26 3.05-3.88 5.24-3.88 5.24-7.34 10.8-0.692 1.08-0.692 1.08-1.4 2.18h-2c-0.66 1.65-1.32 3.3-2 5h-2l-0.25 1.62c-1.03 3.25-2.72 5.66-4.75 8.38h-2c-0.338 1.03-0.338 1.03-0.684 2.08-1.65 3.66-3.88 6.49-6.38 9.61-3.26 3.96-3.26 3.96-5.94 8.31h-2c-0.246 0.718-0.492 1.44-0.746 2.18-1.4 3.14-3.12 5.38-5.32 8.01-2.75 3.23-2.75 3.23-4.94 6.81h-2c-0.206 0.66-0.412 1.32-0.625 2-1.58 3.45-3.62 6.15-5.94 9.13-1.21 1.57-2.34 3.21-3.44 4.87h-2c-1.08 2.65-2.09 5.28-3 8-1.31 1.35-2.65 2.69-4 4-0.33 0.66-0.66 1.32-1 2h-2l-0.699 2.11c-1.57 3.49-3.73 6.26-6.11 9.21-2.9 3.67-5.7 7.3-8.12 11.3-1.66 2.72-2.89 4.21-5.06 6.38-0.977 1.32-1.92 2.66-2.85 4.01-0.784 1.14-0.784 1.14-1.58 2.29-1.09 1.6-2.19 3.2-3.27 4.8-0.521 0.753-1.04 1.51-1.58 2.28-0.473 0.693-0.946 1.39-1.43 2.1-0.423 0.499-0.845 0.999-1.28 1.51h-2c-0.289 0.763-0.577 1.53-0.875 2.31-1.12 2.69-1.12 2.69-3.12 5.69h-2c-0.248 0.743-0.495 1.48-0.75 2.25-1.35 2.98-2.92 4.49-5.25 6.75-1.24 2.13-1.24 2.13-2 4h-2c-0.242 0.706-0.485 1.41-0.734 2.14-1.46 3.29-3.31 5.77-5.52 8.61-3.42 4.45-6.6 8.94-9.56 13.7-0.393 0.51-0.786 1.02-1.19 1.55h-2c-0.226 0.687-0.451 1.37-0.684 2.08-1.65 3.66-3.88 6.49-6.38 9.61-3.26 3.96-3.26 3.96-5.94 8.31h-2c-0.248 0.701-0.495 1.4-0.75 2.12-1.42 3.27-3.12 6.02-5.25 8.88h-2c-0.248 0.536-0.495 1.07-0.75 1.62-1.55 2.94-3.39 5.62-5.25 8.38-0.495 0.866-0.99 1.73-1.5 2.62-1.6 2.53-3.39 4.26-5.5 6.38-4.2 5.1-4.2 5.1-7 11-1.31 1.35-2.65 2.69-4 4l-1 2h-2c-0.248 0.701-0.495 1.4-0.75 2.12-1.42 3.27-3.12 6.02-5.25 8.88h-2l-2 5h-2l-0.812 1.69c-1.3 2.52-2.61 4.95-4.19 7.31h-2c-0.248 0.701-0.495 1.4-0.75 2.12-1.42 3.27-3.12 6.02-5.25 8.88h-2l-0.812 1.69c-1.3 2.52-2.61 4.95-4.19 7.31h-2l-0.438 1.88c-0.562 2.12-0.562 2.12-1.56 4.12h-2l-0.812 1.69c-1.3 2.52-2.61 4.95-4.19 7.31h-2l-2 6h-2v2h-2v3h-2l-1 4h-2v2h-2c-1.76 4.5-2.19 8.18-2 13h2l0.75 2.62c2.23 6.02 4.76 9.2 10.2 12.4 1.4 2.2 2 3.4 2 6h2c0.99 2.31 1.98 4.62 3 7h2l2 5h2v2h2l0.25 1.69c1.29 3.97 4.05 6.64 7 9.5 1.75 1.81 1.75 1.81 1.75 3.81l2 1v2c0.315 1.34 0.646 2.67 1 4 0.99-0.33 1.98-0.66 3-1 2.01 2.89 3.81 5.51 5.06 8.81 0.309 0.722 0.619 1.44 0.938 2.19 0.99 0.33 1.98 0.66 3 1 0.562 1.94 0.562 1.94 1 4 2.03 2.16 2.03 2.16 5 4v3c0.99 0.33 1.98 0.66 3 1 0.562 1.94 0.562 1.94 1 4 2.03 2.16 2.03 2.16 5 4l0.5 2.06 0.5 1.94c0.99 0.33 1.98 0.66 3 1 0.667 2 1.33 4 2 6 0.99 0.33 1.98 0.66 3 1 0.699 1.32 1.37 2.65 2 4 0.66 0.33 1.32 0.66 2 1v2h2l0.188 1.69c1.14 3.25 3.38 4.94 5.81 7.31 0.33 0.99 0.66 1.98 1 3 0.66 0.33 1.32 0.66 2 1v2h2v3h2c2.26 2.54 3.4 4.66 4 8h2c0.33 1.32 0.66 2.64 1 4h2c0.66 1.65 1.32 3.3 2 5h2c2.4 3.2 4.38 6 5 10h2c0.66 1.65 1.32 3.3 2 5h2c1.01 1.79 2.02 3.58 3.03 5.37 0.87 1.61 0.87 1.61 1.97 2.63 4 4.73 4 4.73 4 7h2c3 5.75 3 5.75 3 8 0.99 0.33 1.98 0.66 3 1 0.562 1.94 0.562 1.94 1 4 0.66 0.66 1.32 1.32 2 2h2c0.66 1.65 1.32 3.3 2 5h2v3h2l0.25 2.38c0.248 0.866 0.495 1.73 0.75 2.62 0.66 0.33 1.32 0.66 2 1 0.66 0.33 1.32 0.66 2 1 0.75 2.63 0.75 2.63 1 5h3c0.66 1.98 1.32 3.96 2 6h2v2h2c0.186 0.959 0.186 0.959 0.375 1.94 0.206 0.681 0.412 1.36 0.625 2.06 0.66 0.33 1.32 0.66 2 1v2h2c0.289 0.804 0.577 1.61 0.875 2.44 0.858 2.7 0.858 2.7 3.12 3.56v2h2v3h2c1.73 2.12 1.73 2.12 3.62 4.88 0.632 0.905 1.26 1.81 1.91 2.74 1.46 2.38 1.46 2.38 1.46 4.38h2c-1 2-1 2-2 3h4v2h2c2.22 2.89 3.84 5.13 4.5 8.75 0.165 0.742 0.33 1.48 0.5 2.25 1.97 1.36 1.97 1.36 4 2v2h2c1.47 1.83 1.47 1.83 3.06 4.25 0.527 0.789 1.05 1.58 1.6 2.39 1.24 2.19 1.76 3.94 2.34 6.36l2 2h2c0.66 1.65 1.32 3.3 2 5h2c0.186 0.866 0.186 0.866 0.375 1.75 0.653 2.35 1.32 4.19 2.62 6.25 0.66 0.309 1.32 0.619 2 0.938 2.75 1.46 3.09 3.18 4 6.06h2c0.402 1.33 0.402 1.33 0.812 2.69 2.02 5.7 2.02 5.7 6.38 9.62 0.598 0.227 1.2 0.454 1.81 0.688v2h2c2 3 2 3 2 6h2v2h2v3h2c0.33 1.32 0.66 2.64 1 4h2c4 5.41 4 5.41 4 8h2v3h2v2h2c1.29 1.68 1.29 1.68 2.62 3.88l1.35 2.18c1.02 1.95 1.02 1.95 1.02 3.95h2v2l2 1v2h2l0.188 1.69c1.14 3.25 3.38 4.94 5.81 7.31l1 3 2 1v2h2v3h2c4 5.41 4 5.41 4 8h2l1 4h2l2 5h2l2 6h2l1 4h2l2 5h2v2h2v3c1.29 1.38 2.63 2.71 4 4 3 3.64 3 3.64 3 6h2c2.17 2.96 3.84 5.51 5 9l1 2h2l1 4h2c0.289 0.804 0.578 1.61 0.875 2.44 0.858 2.7 0.858 2.7 3.12 3.56v2h2v3h2c1.91 2.27 1.91 2.27 4.06 5.25 0.713 0.975 1.43 1.95 2.16 2.95 1.53 2.41 2.35 4.02 2.78 6.8h2v2h2l0.25 2.38 0.75 2.62c1.32 0.684 2.66 1.35 4 2 1.25 2.62 1.25 2.62 2 5h2v3h2c1.42 1.72 2.77 3.5 4.06 5.31 1.07 1.48 1.07 1.48 2.16 2.99 1.78 2.7 1.78 2.7 2.78 5.7h2v3h2v2h2l2 6h2c1.29 1.46 1.29 1.46 2.62 3.38 0.669 0.94 0.669 0.94 1.35 1.9 1.02 1.73 1.02 1.73 1.02 3.73h2l2 6h2c1.29 1.46 1.29 1.46 2.62 3.38 0.669 0.94 0.669 0.94 1.35 1.9 1.02 1.73 1.02 1.73 1.02 3.73h2l2 6h2c1.63 2.09 3.14 4.18 4.62 6.38 0.42 0.603 0.84 1.21 1.27 1.83 3.1 4.53 3.1 4.53 3.1 6.8h2v3h2v2h2c0.978 1.38 1.95 2.77 2.85 4.21 1.23 1.91 2.55 3.72 3.9 5.54 2.25 3.25 2.25 3.25 2.25 5.25h2c1.63 2.09 3.14 4.18 4.62 6.38 0.42 0.603 0.84 1.21 1.27 1.83 3.1 4.53 3.1 4.53 3.1 6.8h2v3h2v2h2l2 6h2c1.29 1.46 1.29 1.46 2.62 3.38 0.669 0.94 0.669 0.94 1.35 1.9 1.02 1.73 1.02 1.73 1.02 3.73h2c2 3 2 3 2 6h2c1.29 1.46 1.29 1.46 2.62 3.38 0.669 0.94 0.669 0.94 1.35 1.9 1.02 1.73 1.02 1.73 1.02 3.73h2v2h2l2 6h2c1.29 1.46 1.29 1.46 2.62 3.38 0.669 0.94 0.669 0.94 1.35 1.9 1.02 1.73 1.02 1.73 1.02 3.73h2v3h2c2 3 2 3 2 6h2v2h2c3 4.38 3 4.38 3 7h2c2 3 2 3 2 6h2v2h2c0.978 1.38 1.95 2.77 2.85 4.21 1.23 1.91 2.55 3.72 3.9 5.54 2.25 3.25 2.25 3.25 2.25 5.25h2c1.29 1.46 1.29 1.46 2.62 3.38 0.669 0.94 0.669 0.94 1.35 1.9 1.02 1.73 1.02 1.73 1.02 3.73h2l2 6h2v3h2c2 3 2 3 1.62 5.69l-0.625 2.31c-0.873-9.22e-4 -1.75-0.00184-2.65-0.00279-21.7-0.0225-43.3-0.0388-65-0.049-10.5-0.00507-21-0.0119-31.4-0.0236-11.1-0.0123-22.3-0.0187-33.4-0.0212-3.02-1e-3 -6.05-0.00298-9.07-0.00511-21.4-0.0126-42.8 0.0752-64.2 0.469-1.81 0.0319-3.61 0.0636-5.42 0.0953-7.6 0.135-15.2 0.28-22.8 0.478-3.02 0.0751-6.05 0.134-9.07 0.189-1.39 0.0291-2.77 0.0655-4.16 0.11-11.7 0.371-11.7 0.371-15.5-2.06-2.63-2.51-4.5-5.02-6.28-8.18v-2h-2c-1.29-1.46-1.29-1.46-2.62-3.38-0.669-0.94-0.669-0.94-1.35-1.9-1.02-1.73-1.02-1.73-1.02-3.73h-2v-2h-2v-3h-2c-1.73-2.12-1.73-2.12-3.62-4.88-0.632-0.905-1.26-1.81-1.91-2.74-1.46-2.38-1.46-2.38-1.46-4.38h-2v-3h-2v-2h-2c-0.897-1.61-0.897-1.61-1.81-3.25-1.22-2.15-2.44-4.08-3.94-6.06-1.25-1.69-1.25-1.69-1.25-3.69h-2v-2h-2v-3h-2v-3h-2c-1.29-1.46-1.29-1.46-2.62-3.38-0.669-0.94-0.669-0.94-1.35-1.9-1.02-1.73-1.02-1.73-1.02-3.73h-2v-3h-2c-4-5.41-4-5.41-4-8h-2c-0.33-1.32-0.66-2.64-1-4h-2c-4-5.29-4-5.29-4-9h-2v-2h-2c-1.29-1.46-1.29-1.46-2.62-3.38-0.669-0.94-0.669-0.94-1.35-1.9-1.02-1.73-1.02-1.73-1.02-3.73h-2c-0.66-1.98-1.32-3.96-2-6h-2c-1.29-1.46-1.29-1.46-2.62-3.38-0.669-0.94-0.669-0.94-1.35-1.9-1.02-1.73-1.02-1.73-1.02-3.73h-2c-4-5.41-4-5.41-4-8h-2v-3h-2c-1.63-2.09-3.14-4.18-4.62-6.38-0.42-0.603-0.84-1.21-1.27-1.83-3.1-4.53-3.1-4.53-3.1-6.8h-2v-2h-2c-0.897-1.61-0.897-1.61-1.81-3.25-1.22-2.15-2.44-4.08-3.94-6.06-1.25-1.69-1.25-1.69-1.25-3.69h-2v-2h-2v-3h-2c-4-5.41-4-5.41-4-8h-2c-0.33-1.32-0.66-2.64-1-4h-2v-3h-2v-2h-2c-0.66-1.98-1.32-3.96-2-6h-2c-2.17-2.96-3.84-5.51-5-9h-2c-2-3-2-3-2-6h-2c-1.29-1.46-1.29-1.46-2.62-3.38-0.669-0.94-0.669-0.94-1.35-1.9-1.02-1.73-1.02-1.73-1.02-3.73h-2c-1.51-1.9-1.51-1.9-3.12-4.38-0.539-0.812-1.08-1.62-1.63-2.46-1.24-2.16-1.24-2.16-1.24-4.16h-2c-0.33-1.32-0.66-2.64-1-4h-2c-4-5.41-4-5.41-4-8h-2v-3h-2v-2h-2c-1.73-2.34-1.73-2.34-3.62-5.38-0.632-0.998-1.26-2-1.91-3.02-1.46-2.6-1.46-2.6-1.46-4.6h-2v-2h-2c-1.03-1.65-2.02-3.32-3-5-1.57-2.1-3.17-4.17-4.79-6.23-1.21-1.77-1.21-1.77-1.21-3.77h-2v-3h-2c-1.73-2.12-1.73-2.12-3.62-4.88l-1.91-2.74c-1.46-2.38-1.46-2.38-1.46-4.38h-2v-3h-2v-2h-2l-2-6h-2c-1.29-1.46-1.29-1.46-2.62-3.38-0.669-0.94-0.669-0.94-1.35-1.9-1.02-1.73-1.02-1.73-1.02-3.73h-2c-2-3-2-3-2-6h-2c-1.29-1.46-1.29-1.46-2.62-3.38-0.669-0.94-0.669-0.94-1.35-1.9-1.02-1.73-1.02-1.73-1.02-3.73h-2l-2-5h-2l-2-6h-2l-1-4h-2c-1.51-1.9-1.51-1.9-3.12-4.38-0.539-0.812-1.08-1.62-1.63-2.46-1.24-2.16-1.24-2.16-1.24-4.16h-2c-1.29-1.46-1.29-1.46-2.62-3.38-0.669-0.94-0.669-0.94-1.35-1.9-1.02-1.73-1.02-1.73-1.02-3.73h-2l-2-6h-2v-2h-2v-3h-2c-1.73-2.12-1.73-2.12-3.62-4.88-0.632-0.905-1.26-1.81-1.91-2.74-1.46-2.38-1.46-2.38-1.46-4.38h-2v-3h-2c-1.4-1.61-1.4-1.61-2.94-3.75-0.504-0.696-1.01-1.39-1.53-2.11-0.507-0.706-1.01-1.41-1.54-2.14-0.558-0.706-1.12-1.41-1.69-2.14-1.31-1.86-1.31-1.86-1.31-3.86h-2v-2h-2l-2-6h-2c-1.29-1.46-1.29-1.46-2.62-3.38-0.669-0.94-0.669-0.94-1.35-1.9-1.02-1.73-1.02-1.73-1.02-3.73h-2v-3h-2c-4-5.41-4-5.41-4-8h-2c-0.33-1.32-0.66-2.64-1-4h-2c-4-5.29-4-5.29-4-9h-2v-2h-2c-2.17-2.96-3.84-5.51-5-9h-2l-2-6h-2c-1.29-1.46-1.29-1.46-2.62-3.38-0.669-0.94-0.669-0.94-1.35-1.9-1.02-1.73-1.02-1.73-1.02-3.73h-2l-2-6h-2v-2h-2v-3h-2l-1-4h-2c-1.51-1.9-1.51-1.9-3.12-4.38-0.539-0.812-1.08-1.62-1.63-2.46-1.24-2.16-1.24-2.16-1.24-4.16h-2c-1.63-2.09-3.14-4.18-4.62-6.38-0.42-0.603-0.84-1.21-1.27-1.83-3.1-4.53-3.1-4.53-3.1-6.8h-2v-2h-2c-1.06-1.63-2.04-3.31-3-5l-2.19-3.19c-1.81-2.81-1.81-2.81-1.81-4.81h-2l-2-5h-2c-1.89-2.68-3.66-5.41-5.37-8.2-2.71-4.16-4.78-5.75-9.63-6.8v2h-2l-2 5h-2l-1 4h-2l-2 5h-2l-0.438 1.88c-0.562 2.12-0.562 2.12-1.56 4.12h-2l-0.812 1.69c-1.3 2.52-2.61 4.95-4.19 7.31h-2l-0.438 1.88c-0.563 2.13-0.563 2.13-1.56 4.12h-2l-2 5h-2l-1 4h-2l-2 6h-2l-2 5h-2l-1 4h-2l-0.875 2.31c-1.12 2.69-1.12 2.69-3.12 5.69h-2v3h-2v2h-2l-0.316 1.7c-0.81 2.72-2.05 4.69-3.62 7.05-0.525 0.799-1.05 1.6-1.59 2.42-0.729 0.905-0.729 0.905-1.47 1.83h-2v2h-2v3h-2l-0.688 2.06c-1.62 3.64-3.64 6.97-6.31 9.94h-2v3h-2c-0.289 0.763-0.578 1.53-0.875 2.31-1.12 2.69-1.12 2.69-3.12 5.69h-2c-0.33 1.32-0.66 2.64-1 4h-2c-0.66 1.65-1.32 3.3-2 5h-2c-0.144 0.619-0.289 1.24-0.438 1.88-0.562 2.12-0.562 2.12-1.56 4.12h-2c-0.268 0.742-0.536 1.49-0.812 2.25-1.14 2.64-2.28 4.61-4.19 6.75h-2l-2 6h-2v2h-2c-0.206 0.681-0.412 1.36-0.625 2.06-1.57 3.35-3.57 5.66-6.04 8.39-1.43 1.53-1.43 1.53-2.34 3.55h-2v3h-2c-0.258 0.541-0.516 1.08-0.781 1.64-1.44 2.79-3.05 5.44-4.72 8.11-0.608 0.985-1.22 1.97-1.84 2.98-0.547 0.748-1.09 1.5-1.66 2.27h-2c-0.258 0.541-0.516 1.08-0.781 1.64-1.44 2.79-3.05 5.44-4.72 8.11-0.608 0.985-1.22 1.97-1.84 2.98-0.547 0.748-1.09 1.5-1.66 2.27h-2v2h-2v3h-2c-0.289 0.578-0.578 1.16-0.875 1.75-1.04 2.08-2.08 4.17-3.12 6.25h-2c-0.33 1.32-0.66 2.64-1 4h-2v3h-2l-0.875 2.31c-1.12 2.69-1.12 2.69-3.12 5.69h-2c-0.402 0.835-0.402 0.835-0.812 1.69-1.3 2.52-2.61 4.95-4.19 7.31h-2c-0.66 1.98-1.32 3.96-2 6h-2c-0.402 0.835-0.402 0.835-0.812 1.69-1.3 2.52-2.61 4.95-4.19 7.31h-2c-0.66 1.98-1.32 3.96-2 6h-2c-0.66 1.65-1.32 3.3-2 5h-2c-0.33 1.32-0.66 2.64-1 4h-2c-0.66 1.65-1.32 3.3-2 5h-2c-0.144 0.619-0.289 1.24-0.438 1.88-0.562 2.13-0.562 2.13-1.56 4.12h-2c-0.402 0.835-0.402 0.835-0.812 1.69-1.3 2.52-2.61 4.95-4.19 7.31h-2c-0.144 0.619-0.289 1.24-0.438 1.88-0.562 2.13-0.562 2.13-1.56 4.12h-2c-0.66 1.65-1.32 3.3-2 5h-2c-0.33 1.32-0.66 2.64-1 4h-2c-0.66 1.98-1.32 3.96-2 6h-2v2h-2v3h-2c-0.278 0.572-0.557 1.14-0.844 1.73-1.14 2.23-2.36 4.37-3.66 6.52-0.423 0.706-0.846 1.41-1.28 2.14-0.402 0.531-0.804 1.06-1.22 1.61h-2v3h-2c-0.206 0.66-0.412 1.32-0.625 2-1.6 3.49-3.68 6.22-6.04 9.23-1.4 1.74-1.4 1.74-2.34 3.77h-2v2h-2l-0.781 2.17c-1.29 3-2.85 5.47-4.72 8.14-0.913 1.32-0.913 1.32-1.84 2.68-0.547 0.664-1.09 1.33-1.66 2.01h-2c-0.247 0.701-0.495 1.4-0.75 2.12-1.42 3.27-3.12 6.02-5.25 8.88h-2c-0.402 0.835-0.402 0.835-0.812 1.69-1.3 2.52-2.61 4.95-4.19 7.31h-2c-0.144 0.619-0.289 1.24-0.438 1.88-0.562 2.13-0.562 2.13-1.56 4.12h-2c-0.402 0.835-0.402 0.835-0.812 1.69-1.3 2.52-2.61 4.95-4.19 7.31h-2l-0.875 2.31c-1.12 2.69-1.12 2.69-3.12 5.69h-2c-0.268 0.742-0.536 1.48-0.812 2.25-1.14 2.64-2.28 4.61-4.19 6.75h-2v3h-2v3h-2l-2 5h-2l-1 4h-2l-2 5h-2v4h-2v2h-2l-0.781 2.17c-1.29 3-2.85 5.47-4.72 8.14-0.913 1.32-0.913 1.32-1.84 2.68-0.547 0.664-1.09 1.33-1.66 2.01h-2l-0.625 2c-1.6 3.49-3.68 6.22-6.04 9.23-1.4 1.74-1.4 1.74-2.34 3.77h-2v2h-2v3h-2l-1 4h-2c-0.248 0.701-0.495 1.4-0.75 2.12-1.42 3.27-3.12 6.02-5.25 8.88h-2l-0.625 2c-1.6 3.49-3.68 6.22-6.04 9.23-1.4 1.74-1.4 1.74-2.34 3.77h-2v2h-2c-0.144 0.619-0.289 1.24-0.438 1.88-0.563 2.13-0.563 2.13-1.56 4.12h-2c-0.309 0.784-0.619 1.57-0.938 2.38-1.06 2.63-1.06 2.63-2.06 4.62h-2v2h-2v3h-2v3h-2c-0.66 1.65-1.32 3.3-2 5h-2c-0.402 0.835-0.402 0.835-0.812 1.69-1.3 2.52-2.61 4.95-4.19 7.31h-2c-0.248 0.784-0.495 1.57-0.75 2.38-1.46 3.07-2.17 3.43-5.25 4.62-2.04 0.247-2.04 0.247-4.24 0.243-0.844 0.00337-1.69 0.00673-2.56 0.0102-0.922-0.00651-1.84-0.013-2.79-0.0197-0.983 1e-3 -1.97 0.00201-2.98 0.00304-3.3 9.55e-4 -6.61-0.0124-9.91-0.0256-2.37-0.0022-4.73-0.00351-7.1-0.00398-5.76-0.00332-11.5-0.0157-17.3-0.0319-6.71-0.0182-13.4-0.0243-20.1-0.0293-12-0.00926-24-0.0267-35.9-0.05-0.717-0.00139-1.43-0.00279-2.17-0.00422-1.08-0.00209-1.08-0.00209-2.18-0.00423-10.2-0.0198-20.3-0.0376-30.5-0.0531-0.715-0.00109-1.43-0.00218-2.17-0.00331-11.9-0.018-23.9-0.032-35.8-0.0439-8.01-0.00826-16-0.0224-24-0.041-4.98-0.0106-9.97-0.0172-15-0.0228-2.31-0.00347-4.63-0.00869-6.94-0.0158-3.16-0.00944-6.31-0.0127-9.46-0.0145-0.918-0.00428-1.84-0.00855-2.78-0.013-4.48 4e-3 -8.65 0.266-13.1 1.12-2.25 0.0889-4.5 0.13-6.75 0.125-1.13 0.00258-2.26 0.00516-3.42 0.00781-2.83-0.133-2.83-0.133-4.83-1.13v-4h2v-3h2c0.34-1.02 0.34-1.02 0.688-2.06 1.62-3.64 3.64-6.97 6.31-9.94h2v-3h2c0.66-1.98 1.32-3.96 2-6h2v-2h2c0.268-0.742 0.536-1.48 0.812-2.25 1.14-2.64 2.28-4.61 4.19-6.75h2c0.144-0.619 0.289-1.24 0.438-1.88 0.563-2.12 0.563-2.12 1.56-4.12h2c0.268-0.742 0.536-1.48 0.812-2.25 1.14-2.64 2.28-4.61 4.19-6.75h2c0.66-1.98 1.32-3.96 2-6h2v-2h2v-3h2c0.33-1.32 0.66-2.64 1-4h2c0.433-1.14 0.433-1.14 0.875-2.31 1.12-2.69 1.12-2.69 3.12-5.69h2v-3h2l0.781-2.17c1.29-3 2.85-5.47 4.72-8.14 0.913-1.32 0.913-1.32 1.84-2.68 0.547-0.664 1.09-1.33 1.66-2.01h2v-2h2c0.0928-0.565 0.186-1.13 0.281-1.71 0.896-2.86 2.33-4.6 4.22-6.91 2.5-3.03 2.5-3.03 4.5-6.38h2v-3h2c0.289-0.578 0.577-1.16 0.875-1.75 1.04-2.08 2.08-4.17 3.12-6.25h2c0.33-1.32 0.66-2.64 1-4h2v-3h2v-2h2c0.144-0.619 0.289-1.24 0.438-1.88 0.563-2.12 0.563-2.12 1.56-4.12h2c0.402-0.835 0.402-0.835 0.812-1.69 1.3-2.52 2.61-4.95 4.19-7.31h2c0.66-1.98 1.32-3.96 2-6h2c0.402-0.835 0.402-0.835 0.812-1.69 1.3-2.52 2.61-4.95 4.19-7.31h2c0.248-0.701 0.495-1.4 0.75-2.12 1.42-3.27 3.12-6.02 5.25-8.88h2c0.402-0.835 0.402-0.835 0.812-1.69 1.3-2.52 2.61-4.95 4.19-7.31h2v-3h2v-3h2l0.781-1.64c1.44-2.79 3.05-5.44 4.72-8.11 0.608-0.985 1.22-1.97 1.84-2.98 0.547-0.748 1.09-1.5 1.66-2.27h2v-2h2v-3h2c0.34-1.02 0.34-1.02 0.688-2.06 1.62-3.64 3.64-6.97 6.31-9.94h2c0.66-1.65 1.32-3.3 2-5h2c0.66-1.65 1.32-3.3 2-5h2c0.309-0.784 0.619-1.57 0.938-2.38 1.06-2.62 1.06-2.62 2.06-4.62h2v-2h2c0.144-0.619 0.289-1.24 0.438-1.88 0.562-2.12 0.562-2.12 1.56-4.12h2c0.268-0.742 0.536-1.48 0.812-2.25 1.14-2.64 2.28-4.61 4.19-6.75h2v-3h2v-3h2c0.66-1.65 1.32-3.3 2-5h2c0.33-1.32 0.66-2.64 1-4h2c0.248-0.701 0.495-1.4 0.75-2.12 1.42-3.27 3.12-6.02 5.25-8.88h2c0.402-0.835 0.402-0.835 0.812-1.69 1.3-2.52 2.61-4.95 4.19-7.31h2v-3h2v-3h2c0.402-0.835 0.402-0.835 0.812-1.69 1.3-2.52 2.61-4.95 4.19-7.31h2c0.66-1.98 1.32-3.96 2-6h2v-2h2v-3h2c0.278-0.572 0.557-1.14 0.844-1.73 1.14-2.23 2.36-4.37 3.66-6.52 0.423-0.706 0.846-1.41 1.28-2.14 0.402-0.531 0.804-1.06 1.22-1.61h2v-3h2v-2h2c0.371-1.08 0.371-1.08 0.75-2.19 1.36-3.06 3.14-5.23 5.25-7.81 0.33-0.99 0.66-1.98 1-3h2v-2h2c0.0838-0.541 0.168-1.08 0.254-1.64 1-3.18 2.72-5.43 4.68-8.11 1.07-1.48 1.07-1.48 2.15-2.98 0.946-1.12 0.946-1.12 1.91-2.27h2v-3h2c0.248-0.722 0.495-1.44 0.75-2.19 1.36-3.07 3.1-5.25 5.25-7.81 0.33-0.66 0.66-1.32 1-2h2c0.66-1.65 1.32-3.3 2-5h2c0.66-1.98 1.32-3.96 2-6h2c0.402-0.835 0.402-0.835 0.812-1.69 1.3-2.52 2.61-4.95 4.19-7.31h2c0.66-1.98 1.32-3.96 2-6h2v-2h2c0.309-0.784 0.619-1.57 0.938-2.38 1.06-2.63 1.06-2.63 2.06-4.62h2c0.289-0.763 0.578-1.53 0.875-2.31 1.12-2.69 1.12-2.69 3.12-5.69h2c0.66-1.65 1.32-3.3 2-5h2c0.309-0.784 0.619-1.57 0.938-2.38 1.06-2.62 1.06-2.62 2.06-4.62h2v-3h2v-3h2v-2h2c0.387-1.07 0.387-1.07 0.781-2.17 1.29-3 2.85-5.47 4.72-8.14 0.608-0.883 1.22-1.77 1.84-2.68 0.547-0.664 1.09-1.33 1.66-2.01h2l0.625-2c1.6-3.49 3.68-6.22 6.04-9.23 1.4-1.74 1.4-1.74 2.34-3.77h2v-3h2v-2h2l0.688-2.06c1.62-3.64 3.64-6.97 6.31-9.94h2v-3h2l0.625-2c1.6-3.49 3.68-6.22 6.04-9.23 1.4-1.74 1.4-1.74 2.34-3.77h2v-2h2l0.438-1.88c0.562-2.12 0.562-2.12 1.56-4.12h2c0.309-0.784 0.619-1.57 0.938-2.38 1.06-2.62 1.06-2.62 2.06-4.62h2v-2h2v-3h2v-3h2c0.66-1.65 1.32-3.3 2-5h2c0.247-0.722 0.495-1.44 0.75-2.19 1.36-3.06 3.14-5.23 5.25-7.81 0.33-0.99 0.66-1.98 1-3h2v-2h2c0.268-0.742 0.536-1.48 0.812-2.25 1.14-2.64 2.28-4.61 4.19-6.75h2c0.144-0.619 0.289-1.24 0.438-1.88 0.562-2.12 0.562-2.12 1.56-4.12h2c0.268-0.742 0.536-1.48 0.812-2.25 1.14-2.64 2.28-4.61 4.19-6.75h2c0.247-0.701 0.495-1.4 0.75-2.12 1.42-3.27 3.12-6.02 5.25-8.88h2c0.387-1.07 0.387-1.07 0.781-2.17 1.29-3 2.85-5.47 4.72-8.14 0.608-0.883 1.22-1.77 1.84-2.68 0.547-0.664 1.09-1.33 1.66-2.01h2v-2h2c0.227-0.681 0.454-1.36 0.688-2.06 1.62-3.64 3.64-6.97 6.31-9.94h2v-2h2v-3h2c0.227-0.681 0.454-1.36 0.688-2.06 1.62-3.64 3.64-6.97 6.31-9.94h2v-3h2c0.289-0.763 0.578-1.53 0.875-2.31 1.12-2.69 1.12-2.69 3.12-5.69h2c0.402-0.835 0.402-0.835 0.812-1.69 1.3-2.52 2.61-4.95 4.19-7.31h2v-4h2v-2h2c0.206-0.681 0.412-1.36 0.625-2.06 1.56-3.34 3.55-5.6 6.04-8.29 1.56-1.72 1.56-1.72 2.34-4.65h2c0.66-1.65 1.32-3.3 2-5h2c0.33-1.32 0.66-2.64 1-4h2c0.289-0.763 0.578-1.53 0.875-2.31 1.12-2.69 1.12-2.69 3.12-5.69h2v-3c1.31-1.36 2.65-2.69 4-4 0.536-0.908 1.07-1.82 1.62-2.75 0.454-0.742 0.908-1.48 1.38-2.25h2c0.66-1.98 1.32-3.96 2-6h2v-2h2c0.124-0.598 0.247-1.2 0.375-1.81 0.625-2.19 0.625-2.19 2.62-5.19h2c1.47-4.3 2.77-8.62 4-13h-2c-1.4-1.83-1.4-1.83-2.94-4.25-1.52-2.38-3.02-4.69-4.75-6.92-1.31-1.83-1.31-1.83-1.31-3.83h-2c-1.63-2.09-3.14-4.18-4.62-6.38-0.42-0.603-0.84-1.21-1.27-1.83-3.1-4.53-3.1-4.53-3.1-6.8h-2c-4-5.41-4-5.41-4-8h-2c-1.29-1.46-1.29-1.46-2.62-3.38-0.446-0.626-0.892-1.25-1.35-1.9-1.02-1.73-1.02-1.73-1.02-3.73h-2c-1.42-1.72-2.77-3.5-4.06-5.31-0.713-0.986-1.43-1.97-2.16-2.99-1.78-2.7-1.78-2.7-2.78-5.7h-2c-1.4-1.57-1.4-1.57-2.94-3.69-0.532-0.732-1.06-1.46-1.61-2.22-1.59-2.3-3.02-4.69-4.45-7.09-0.722-0.887-1.44-1.77-2.19-2.69-1.81-2.31-1.81-2.31-1.81-4.31h-2c-2-3-2-3-2-6h-2v-2h-2c-3-4.38-3-4.38-3-7h-2c-1.51-1.9-1.51-1.9-3.12-4.38-0.539-0.812-1.08-1.62-1.63-2.46-1.24-2.16-1.24-2.16-1.24-4.16h-2v-2h-2c-1.41-1.95-2.73-3.96-4-6-0.866-1.36-0.866-1.36-1.75-2.75-1.25-2.25-1.25-2.25-1.25-4.25h-2c-1.65-2.05-3.18-4.1-4.69-6.25-0.978-1.36-1.96-2.73-2.94-4.09-0.534-0.742-1.07-1.48-1.62-2.25-1.91-2.62-3.86-5.21-5.82-7.79-0.684-0.901-1.37-1.8-2.07-2.73-1.36-1.79-2.72-3.58-4.09-5.36-0.621-0.82-1.24-1.64-1.88-2.49-0.838-1.1-0.838-1.1-1.69-2.22-1.2-1.82-1.2-1.82-1.2-3.82h-2c-1.63-2.09-3.14-4.18-4.62-6.38-0.42-0.603-0.84-1.21-1.27-1.83-3.1-4.53-3.1-4.53-3.1-6.8h-2c-1.63-2.09-3.14-4.18-4.62-6.38-0.42-0.603-0.84-1.21-1.27-1.83-3.1-4.53-3.1-4.53-3.1-6.8h-2c-0.66-1.65-1.32-3.3-2-5h-2c-4-5.41-4-5.41-4-8h-2c-0.33-1.32-0.66-2.64-1-4h-2c-0.66-1.65-1.32-3.3-2-5h-2c-0.66-1.98-1.32-3.96-2-6h-2c-1.29-1.46-1.29-1.46-2.62-3.38-0.446-0.626-0.892-1.25-1.35-1.9-1.02-1.73-1.02-1.73-1.02-3.73h-2c-2-3-2-3-2-6h-2v-2h-2c-3-4.38-3-4.38-3-7h-2c-1.59-2.01-1.59-2.01-3.38-4.69-1.95-2.87-3.87-5.62-6.06-8.31-1.56-2-1.56-2-1.56-4h-2c-4-5.29-4-5.29-4-9h-2c-1.77-2.22-3.43-4.44-5.06-6.75-0.989-1.38-1.98-2.76-2.97-4.13-0.496-0.693-0.993-1.39-1.5-2.1-2.81-3.87-5.76-7.65-8.69-11.4-1.7-2.48-2.79-4.76-3.78-7.59h-2v-2h-2c-3-4.38-3-4.38-3-7h-2c-1.51-1.9-1.51-1.9-3.12-4.38-0.539-0.812-1.08-1.62-1.63-2.46-1.24-2.16-1.24-2.16-1.24-4.16h-2c-1.52-1.84-1.52-1.84-3.38-4.5-3.42-4.83-6.93-9.59-10.5-14.3-4-5.32-7.97-10.7-11.9-16.1-0.43-0.589-0.861-1.18-1.3-1.78-2.95-4.11-2.95-4.11-2.95-6.34h-2c-0.33-1.32-0.66-2.64-1-4h-2c-1.42-1.62-1.42-1.62-3.04-3.87-0.58-0.803-1.16-1.61-1.76-2.43-0.603-0.849-1.21-1.7-1.83-2.57-0.611-0.842-1.22-1.68-1.85-2.55-4.52-6.31-4.52-6.31-4.52-8.57h-2c-4-5.41-4-5.41-4-8h-2c-1.29-1.46-1.29-1.46-2.62-3.38-0.446-0.626-0.892-1.25-1.35-1.9-1.02-1.73-1.02-1.73-1.02-3.73h-2c-2-3-2-3-2-6h-2c-1.29-1.46-1.29-1.46-2.62-3.38-0.446-0.626-0.892-1.25-1.35-1.9-1.02-1.73-1.02-1.73-1.02-3.73h-2c-0.433-0.959-0.433-0.959-0.875-1.94-0.953-2.21-0.953-2.21-3.12-3.06v-3h-2c-1.38-1.67-2.68-3.42-3.94-5.19-0.69-0.963-1.38-1.93-2.09-2.92-1.97-2.89-1.97-2.89-3.48-5.51-1.59-2.53-3.37-4.3-5.5-6.39-1.39-1.79-2.74-3.6-4.06-5.44-0.672-0.927-1.34-1.85-2.04-2.81-1.9-2.75-1.9-2.75-3.46-5.41-1.34-2.17-2.63-3.58-4.44-5.34-1.36-1.77-2.69-3.57-4-5.38-0.681-0.936-1.36-1.87-2.06-2.84-1.94-2.79-1.94-2.79-3.5-5.45-1.33-2.17-2.63-3.58-4.44-5.34-1.26-1.66-2.49-3.35-3.69-5.06-0.623-0.878-1.25-1.76-1.89-2.66-1.43-2.28-1.43-2.28-1.43-4.28-0.99-0.33-1.98-0.66-3-1-1.19-2.56-1.19-2.56-2-5h-2c-1.3-1.69-1.3-1.69-2.75-4-2.9-4.49-6.01-8.75-9.25-13-1.44-1.92-2.88-3.83-4.31-5.75-2.33-3.12-4.67-6.23-7.02-9.34-13.7-18.1-13.7-18.1-13.7-20.9-1.49-0.495-1.49-0.495-3-1-1.39-1.96-2.71-3.97-4-6-1.57-2.08-3.15-4.14-4.75-6.19-3.33-4.3-6.64-8.62-9.88-13-0.652-0.88-1.3-1.76-1.98-2.67-1.4-2.14-1.4-2.14-1.4-4.14h-2c-0.91-1.3-1.81-2.6-2.65-3.94-2.41-3.67-5.11-7.15-7.74-10.7-1.61-2.39-1.61-2.39-1.61-4.39-1.49-0.495-1.49-0.495-3-1-1.03-1.65-2.03-3.32-3-5-0.66-0.33-1.32-0.66-2-1-1.01-1.73-2.02-3.46-2.98-5.22-1.05-1.93-1.05-1.93-2.77-4.09-1.25-1.69-1.25-1.69-1.25-3.69-1.49-0.495-1.49-0.495-3-1-1.4-1.96-2.72-3.97-4-6-0.804-1.15-1.62-2.3-2.44-3.44-0.42-0.585-0.84-1.17-1.27-1.77-0.425-0.59-0.851-1.18-1.29-1.79-1.27-1.76-2.54-3.53-3.79-5.3-0.803-1.13-1.62-2.25-2.45-3.37-1.14-1.58-1.14-1.58-2.76-4.33 0.33-0.99 0.66-1.98 1-3zm875 823c0.66 0.66 1.32 1.32 2 2v-2h-2zm81 108 1 2zm49 67 1 2zm4 5 1 2zm52 70 1 2zm5 7 1 2zm11 15 1 2z" fill="#FCFCFD"/>
<path transform="translate(792,904)" d="m0 0h6c0.495 5.94 0.495 5.94 1 12 0.99 0.33 1.98 0.66 3 1 2 0.667 4 1.33 6 2v3h3v-10h7c-0.33 2.97-0.66 5.94-1 9 0.969 0.124 1.94 0.247 2.94 0.375 1.01 0.206 2.02 0.413 3.06 0.625 1.32 2.64 1.1 4.68 1.06 7.62-0.00902 1-0.018 2.01-0.0273 3.04-0.0116 0.771-0.0232 1.54-0.0352 2.34h4c-0.33-1.65-0.66-3.3-1-5 4.75 0.875 4.75 0.875 7 2 0.522 1.99 1.04 3.98 1.49 5.99 0.554 2.19 1.37 4.06 2.51 6.01h2c0.495 3.96 0.495 3.96 1 8h8c0.495 4.46 0.495 4.46 1 9l4 1c0.495 3.96 0.495 3.96 1 8h4c1.35 2.71 1.07 5.01 1 8h-2v10h2c0.33-0.66 0.66-1.32 1-2 0.99 1.49 0.99 1.49 2 3 1.32 1.72 1.32 1.72 3 3 3.63 0.26 3.63 0.26 6 0.0117 3.14-0.0183 5.37 1.41 8 2.99v11h4v3h4v-2h3v-4c-0.99-0.33-1.98-0.66-3-1v-11c4.57-0.914 7.73-0.948 12.3-0.562 1.25 0.102 2.51 0.204 3.8 0.309 1.43 0.126 1.43 0.126 2.89 0.254v9h-6v6h3c0.481 6.38 0.481 6.38-1.5 8.94-3.62 1.54-6.58 1.26-10.5 1.06-0.33-0.66-0.66-1.32-1-2l-2 4h5c0.186 1.7 0.186 1.7 0.375 3.44 0.206 1.18 0.413 2.35 0.625 3.56 0.66 0.33 1.32 0.66 2 1-0.99 0.495-0.99 0.495-2 1v3c1.32 0.33 2.64 0.66 4 1v-5h1c-0.0174 1.65-0.0174 1.65-0.0352 3.32-0.00938 1.45-0.0185 2.91-0.0273 4.36-0.00838 0.721-0.0168 1.44-0.0254 2.19-0.0175 3.84 0.153 7.39 1.09 11.1h3c0.33-1.32 0.66-2.64 1-4h8c0.33 1.98 0.66 3.96 1 6h6v11c-0.99 0.33-1.98 0.66-3 1 0.99 0.66 1.98 1.32 3 2v2c-0.99 0.33-1.98 0.66-3 1 1.65 0.66 3.3 1.32 5 2-0.206 0.557-0.413 1.11-0.625 1.69-0.482 2.97 0.359 4.63 1.62 7.31h4v-4c2-0.0425 4-0.0408 6 0 1 1 1 1 1.12 3.94-0.125 3.06-0.125 3.06-1.12 5.06 0.969-0.0206 1.94-0.0412 2.94-0.0625 3.06 0.0625 3.06 0.0625 4.06 1.06 0.471 5.41 0.471 5.41-1.5 7.88-0.495 0.371-0.99 0.743-1.5 1.12h3c-0.33 1.32-0.66 2.64-1 4-0.33-0.33-0.66-0.66-1-1l-1 2h3v4c0.619 0.309 1.24 0.619 1.88 0.938l4.12 2.06v2h2c-0.186-0.784-0.371-1.57-0.562-2.38-0.438-2.62-0.438-2.62 0.562-4.62h6c0.33 2.31 0.66 4.62 1 7h4v6h-4c1.9 2.35 1.9 2.35 5.12 2.12 0.949-0.0412 1.9-0.0825 2.88-0.125 0.0272 1.75 0.0465 3.5 0.0625 5.25 0.0116 0.975 0.0232 1.95 0.0352 2.95-0.0857 2.45-0.391 4.46-1.1 6.8h2c0.33 1.65 0.66 3.3 1 5 0.784-0.206 1.57-0.412 2.38-0.625 0.866-0.124 1.73-0.247 2.62-0.375 0.66 0.66 1.32 1.32 2 2h-3c0.33 0.99 0.66 1.98 1 3 0.866-0.33 1.73-0.66 2.62-1 3.33-0.987 5.93-1.16 9.38-1v2h2v8h-4c0.66 0.99 1.32 1.98 2 3-0.303 1.34-0.638 2.67-1 4-0.00478 2.15-0.00478 2.15 1 4 2.49 1.3 2.49 1.3 5 2 0.33-1.65 0.66-3.3 1-5h6c0.0816 4.16-0.0175 7.95-1 12h2v4c1.32 0.33 2.64 0.66 4 1v2h-3c-0.33 0.66-0.66 1.32-1 2 0.639 0.124 1.28 0.247 1.94 0.375 0.681 0.206 1.36 0.412 2.06 0.625 0.33 0.66 0.66 1.32 1 2 0.66-0.66 1.32-1.32 2-2 0.81 2.91 1.22 4.46 0.0625 7.31-0.351 0.557-0.701 1.11-1.06 1.69-3.52-3.26-6.53-6.89-9-11v-2h-2v-3h-2v-2h-2c-0.66-1.98-1.32-3.96-2-6h-2c-1.29-1.46-1.29-1.46-2.62-3.38-0.446-0.626-0.892-1.25-1.35-1.9-1.02-1.73-1.02-1.73-1.02-3.73h-2c-2-3-2-3-2-6h-2c-1.29-1.46-1.29-1.46-2.62-3.38-0.446-0.626-0.892-1.25-1.35-1.9-1.02-1.73-1.02-1.73-1.02-3.73h-2c-0.99-2.47-0.99-2.47-2-5h-2c-0.66-1.98-1.32-3.96-2-6h-2c-0.33-1.32-0.66-2.64-1-4h-2c-1.51-1.9-1.51-1.9-3.12-4.38-0.539-0.812-1.08-1.62-1.63-2.46-1.24-2.16-1.24-2.16-1.24-4.16h-2c-1.29-1.46-1.29-1.46-2.62-3.38-0.446-0.626-0.892-1.25-1.35-1.9-1.02-1.73-1.02-1.73-1.02-3.73h-2c-0.66-1.98-1.32-3.96-2-6h-2v-2h-2v-3h-2c-1.73-2.12-1.73-2.12-3.62-4.88-0.632-0.905-1.26-1.81-1.91-2.74-1.46-2.38-1.46-2.38-1.46-4.38h-2v-3h-2c-1.4-1.61-1.4-1.61-2.94-3.75-0.504-0.696-1.01-1.39-1.53-2.11-0.507-0.706-1.01-1.41-1.54-2.14-0.558-0.706-1.12-1.41-1.69-2.14-1.31-1.86-1.31-1.86-1.31-3.86h-2v-2h-2c-0.66-1.98-1.32-3.96-2-6h-2c-1.29-1.46-1.29-1.46-2.62-3.38-0.446-0.626-0.892-1.25-1.35-1.9-1.02-1.73-1.02-1.73-1.02-3.73h-2v-3h-2c-4-5.41-4-5.41-4-8h-2c-0.33-1.32-0.66-2.64-1-4h-2c-4-5.29-4-5.29-4-9h-2v-2h-2c-2.17-2.96-3.84-5.51-5-9h-2c-0.66-1.98-1.32-3.96-2-6h-2c-1.29-1.46-1.29-1.46-2.62-3.38-0.446-0.626-0.892-1.25-1.35-1.9-1.02-1.73-1.02-1.73-1.02-3.73h-2c-0.66-1.98-1.32-3.96-2-6h-2v-2h-2v-3h-2c-0.33-1.32-0.66-2.64-1-4h-2c-1.51-1.9-1.51-1.9-3.12-4.38-0.539-0.812-1.08-1.62-1.63-2.46-1.24-2.16-1.24-2.16-1.24-4.16h-2c-1.63-2.09-3.14-4.18-4.62-6.38-0.42-0.603-0.84-1.21-1.27-1.83-3.1-4.53-3.1-4.53-3.1-6.8h-2v-2h-2c-1.06-1.63-2.04-3.31-3-5-0.722-1.05-1.44-2.1-2.19-3.19-1.81-2.81-1.81-2.81-1.81-4.81h-2c-0.66-1.65-1.32-3.3-2-5h-2c-1.89-2.68-3.66-5.41-5.37-8.2-2.71-4.16-4.78-5.75-9.63-6.8v2h-2c-0.66 1.65-1.32 3.3-2 5h-2c-0.33 1.32-0.66 2.64-1 4h-2c-0.99 2.48-0.99 2.48-2 5h-2c-0.217 0.928-0.217 0.928-0.438 1.88-0.562 2.12-0.562 2.12-1.56 4.12h-2c-0.268 0.557-0.536 1.11-0.812 1.69-1.3 2.52-2.61 4.95-4.19 7.31h-2c-0.217 0.928-0.217 0.928-0.438 1.88-0.562 2.12-0.562 2.12-1.56 4.12h-2c-0.99 2.48-0.99 2.48-2 5h-2v2c-1.32-0.66-2.64-1.32-4-2 0.33-1.65 0.66-3.3 1-5-0.99-0.33-1.98-0.66-3-1 0.33-1.32 0.66-2.64 1-4h2v4h3v-4h2c-0.495-1.49-0.495-1.49-1-3h2v-10c0.33 0.66 0.66 1.32 1 2 2.97-0.495 2.97-0.495 6-1-0.33-1.65-0.66-3.3-1-5 2 1 2 1 5 3v-4h-2v-9h5v-4h-3c-0.982-4.05-1.08-7.84-1-12 4.52-0.0765 8.59-0.102 13 1v-5z" fill="#FDFDFD"/>
<path transform="translate(1232,1399)" d="m0 0c1.57 0.0454 1.57 0.0454 3.17 0.0918 3.87 0.112 7.75 0.224 11.6 0.335 1.68 0.0483 3.35 0.0968 5.03 0.146 2.41 0.0699 4.82 0.139 7.23 0.208 1.13 0.0328 1.13 0.0328 2.27 0.0663 2.89 0.0827 5.78 0.152 8.68 0.152 2.06 0.155 4.13 0.323 6.19 0.5 1.63 0.139 1.63 0.139 3.29 0.281 0.831 0.0722 1.66 0.144 2.52 0.219v2c1.31-0.00786 1.31-0.00786 2.64-0.0159 3.3-0.0173 6.59-0.0297 9.89-0.0391 1.41-0.00496 2.83-0.0117 4.24-0.0205 9.12-0.055 18.1 0.209 27.2 1.08v5h7v-5h8v5c4.29 0.33 8.58 0.66 13 1v6c-1.55 1.55-3.02 1.13-5.18 1.15-0.889 0.00638-1.78 0.0128-2.69 0.0193-0.97 0.00111-1.94 0.00223-2.94 0.00337-0.996 0.00333-1.99 0.00666-3.02 0.0101-2.12 0.00508-4.24 0.00741-6.35 0.00725-3.21 0.00217-6.43 0.0203-9.64 0.0393-2.06 0.00294-4.12 0.00492-6.18 0.00586-0.951 0.00719-1.9 0.0144-2.88 0.0218-5.48-0.0184-10.5-0.55-15.8-1.8-3.95-0.777-7.89-0.66-11.9-0.573-1.22 0.0135-1.22 0.0135-2.46 0.0273-1.97 0.0232-3.94 0.059-5.91 0.0977v-2h-4v2c-1.62 0.195-3.25 0.381-4.88 0.562-0.905 0.104-1.81 0.209-2.74 0.316-2.38 0.121-2.38 0.121-4.38-0.879v-2h-3v2h-32v-3c-6.93-0.495-6.93-0.495-14-1v6h-6v-14h3v-3c3.38-0.188 3.38-0.188 7 0 0.66 0.99 1.32 1.98 2 3 4.03-0.553 8.02-1.16 12-2v-2z" fill="#FDFDFD"/>
<path transform="translate(258 1403)" d="m0 0c0.917-0.0019 1.83-0.0038 2.78-0.00575 3.01-0.00368 6.02 0.00697 9.03 0.0182 2.11 0.00119 4.22 0.00164 6.33 0.00139 4.42 0.00156 8.83 0.00982 13.3 0.0233 5.63 0.0169 11.3 0.0208 16.9 0.0201 4.36 2.74e-4 8.71 0.00579 13.1 0.013 2.07 0.00316 4.15 0.00515 6.22 0.00589 10.7 0.00805 21.3 0.0734 31.9 1.17v5h2c0.0425 2 0.0408 4 0 6-1 1-1 1-2.85 1.1-2.05-0.0326-4.1-0.0651-6.15-0.0977-0.495-2.47-0.495-2.47-1-5h-2c0.0206 0.804 0.0412 1.61 0.0625 2.44-0.0625 2.56-0.0625 2.56-1.06 3.56-2.66 0.131-5.29 0.197-7.95 0.221-1.25 0.0173-1.25 0.0173-2.53 0.0349-2.78 0.0369-5.57 0.0665-8.35 0.0955-1.94 0.0231-3.89 0.0465-5.83 0.0702-4.1 0.0486-8.19 0.0935-12.3 0.136-5.19 0.0541-10.4 0.118-15.6 0.185-4.03 0.0508-8.06 0.0956-12.1 0.139-1.91 0.0212-3.82 0.0443-5.73 0.0695-10.1 0.131-20.3 0.075-30.4-0.383-0.902-0.0395-1.8-0.0791-2.73-0.12-0.83-0.0424-1.66-0.0849-2.52-0.129-0.733-0.0372-1.47-0.0744-2.22-0.113-1.81-0.207-1.81-0.207-3.81-1.21v-6c1.32-0.33 2.64-0.66 4-1v-2h2v-2c5.99-1.73 11.3-2.28 17.5-2.24z" fill="#FDFDFD"/>
<path transform="translate(1093,1282)" d="m0 0h6v6h-5v2h2v8h4v6c-0.66 0.33-1.32 0.66-2 1 0.66 1.32 1.32 2.64 2 4-0.66 0.33-1.32 0.66-2 1 1.65 0.33 3.3 0.66 5 1v2h-3c2.21 2.82 4.4 5.53 7 8-0.0206-0.804-0.0412-1.61-0.0625-2.44 0.0625-2.56 0.0625-2.56 1.06-3.56 2-0.0408 4-0.0425 6 0v7h4v6h-3v3h7c0.495 6.93 0.495 6.93 1 14 0.33-2.31 0.66-4.62 1-7h7v6h-4c0.495 0.454 0.99 0.908 1.5 1.38 1.5 1.62 1.5 1.62 1.5 3.62h-3c0.495 0.433 0.99 0.866 1.5 1.31 1.5 1.69 1.5 1.69 1.5 4.69 0.66-0.33 1.32-0.66 2-1v-3c-0.99-0.495-0.99-0.495-2-1h8v4h2c0.049 0.664 0.098 1.33 0.148 2.01 0.563 6.7 0.563 6.7 2.85 13h2c0.33 1.32 0.66 2.64 1 4h2v-3h6c0.289 0.639 0.578 1.28 0.875 1.94 0.953 2.21 0.953 2.21 3.12 3.06 0.125 5.51 0.125 5.51-0.5 7.94-0.732 3.02-0.559 5.97-0.5 9.06 1.32-0.33 2.64-0.66 4-1 0.33 0.66 0.66 1.32 1 2h-2v3c0.949-0.0206 1.9-0.0412 2.88-0.0625 3.12 0.0625 3.12 0.0625 5.12 1.06 0.33-0.66 0.66-1.32 1-2h7v7h3c0.495 4.95 0.495 4.95 1 10h-2v2h2v3h-2v2c4.29-0.33 8.58-0.66 13-1v6h-4v2h4v3h-4v2h8v13h2v2c0.634 0.235 1.27 0.469 1.92 0.711 2.08 1.29 2.08 1.29 2.91 3.45 0.209 1.22 0.209 1.22 0.422 2.46 0.15 0.817 0.299 1.63 0.453 2.48 0.098 0.626 0.196 1.25 0.297 1.9-2.25-2.69-3.88-4.65-5-8h-2c-1.29-1.46-1.29-1.46-2.62-3.38-0.446-0.626-0.892-1.25-1.35-1.9-1.02-1.73-1.02-1.73-1.02-3.73h-2v-2h-2v-3h-2c-1.73-2.12-1.73-2.12-3.62-4.88-0.632-0.905-1.26-1.81-1.91-2.74-1.46-2.38-1.46-2.38-1.46-4.38h-2v-3h-2v-2h-2c-0.598-1.07-1.2-2.14-1.81-3.25-1.22-2.15-2.44-4.08-3.94-6.06-1.25-1.69-1.25-1.69-1.25-3.69h-2v-2h-2v-3h-2v-3h-2c-1.29-1.46-1.29-1.46-2.62-3.38-0.446-0.626-0.892-1.25-1.35-1.9-1.02-1.73-1.02-1.73-1.02-3.73h-2v-3h-2c-4-5.41-4-5.41-4-8h-2c-0.33-1.32-0.66-2.64-1-4h-2c-4-5.29-4-5.29-4-9h-2v-2h-2c-1.29-1.46-1.29-1.46-2.62-3.38-0.446-0.626-0.892-1.25-1.35-1.9-1.02-1.73-1.02-1.73-1.02-3.73h-2c-0.66-1.98-1.32-3.96-2-6h-2c-1.29-1.46-1.29-1.46-2.62-3.38-0.446-0.626-0.892-1.25-1.35-1.9-1.02-1.73-1.02-1.73-1.02-3.73h-2c-4-5.41-4-5.41-4-8h-2v-3h-2c-1.63-2.09-3.14-4.18-4.62-6.38-0.42-0.603-0.84-1.21-1.27-1.83-3.1-4.53-3.1-4.53-3.1-6.8h-2v-2h-2c-0.598-1.07-1.2-2.14-1.81-3.25-1.22-2.15-2.44-4.08-3.94-6.06-1.25-1.69-1.25-1.69-1.25-3.69-0.66-0.33-1.32-0.66-2-1h4c-0.309-1.11-0.309-1.11-0.625-2.25-0.419-3.07 0.00551-4.18 1.62-6.75h5v-5z" fill="#FDFDFD"/>
<path transform="translate(1411 1443)" d="m0 0c1.06-0.0058 1.06-0.0058 2.14-0.0117 3.79 0.00705 7.3 0.228 11 1.14v6c-2.64 0.33-5.28 0.66-8 1v8c-69.3 0.495-69.3 0.495-140 1 0.33-3.3 0.66-6.6 1-10h11v-6h39v6h73v-6c3.67-1.22 7.06-1.15 10.9-1.12z" fill="#FEFEFE"/>
<path transform="translate(254,121)" d="m0 0v2h5v4c1.01-0.0838 2.03-0.168 3.07-0.254 1.35-0.103 2.7-0.206 4.05-0.309 0.665-0.0561 1.33-0.112 2.02-0.17 4.13-0.304 7.81-0.12 11.9 0.732 1.18 3.67 1.07 7.17 1 11 0.99 0.33 1.98 0.66 3 1 1.37 2.74 1.13 4.97 1 8-0.33 0.66-0.66 1.32-1 2h-3c-0.495 1.49-0.495 1.49-1 3-2 0.0425-4 0.0408-6 0-1-1-1-1-1.06-4.06 0.0206-0.969 0.0412-1.94 0.0625-2.94-0.66-0.33-1.32-0.66-2-1-0.33 0.99-0.66 1.98-1 3h-6v-9h6c-0.33-0.66-0.66-1.32-1-2h-6v4h-4c0.0206 0.804 0.0412 1.61 0.0625 2.44-0.0625 2.56-0.0625 2.56-1.06 3.56-7.06 0.579-7.06 0.579-10.4-1.5-2.2-3.52-2.29-6.37-2.56-10.5h-2v-2h-2c-0.25-5.62-0.25-5.62 2-9 3.74-1.97 6.81-2.19 11-2z" fill="#FDFDFD"/>
<path transform="translate(1180,76)" d="m0 0h260c0.33 0.66 0.66 1.32 1 2-0.971-0.00222-1.94-0.00444-2.94-0.00673-9.14-0.0203-18.3-0.0353-27.4-0.0451-4.7-0.00522-9.4-0.0123-14.1-0.0236-4.53-0.0109-9.06-0.0168-13.6-0.0194-1.73-0.00185-3.46-0.00546-5.19-0.0109-2.42-0.00724-4.84-0.00826-7.26-0.0078-0.719-0.0036-1.44-0.00719-2.18-0.0109-3.06 0.00636-5.4 0.149-8.32 1.12-2.42 0.105-4.81 0.155-7.23 0.158-0.742 0.00494-1.48 0.00988-2.25 0.015-2.49 0.0154-4.98 0.0237-7.48 0.0321-1.78 0.00958-3.57 0.0196-5.35 0.03-4.85 0.0271-9.7 0.0481-14.5 0.068-5.06 0.0218-10.1 0.0492-15.2 0.0761-9.59 0.0499-19.2 0.0949-28.8 0.138-10.9 0.0494-21.8 0.104-32.8 0.16-22.5 0.114-44.9 0.221-67.4 0.323 0.33-1.32 0.66-2.64 1-4z" fill="#C4C5C5"/>
<path transform="translate(1262 1450)" d="m0 0c0.754 0.00322 1.51 0.00645 2.29 0.00977 0.777 0.00838 1.55 0.0168 2.36 0.0254 0.793 0.00451 1.59 0.00902 2.4 0.0137 1.95 0.0117 3.9 0.0297 5.85 0.0488 2.03 4.19 1.98 5.08 1 10h-22v-3h-23v-2h23v-4c2.78-0.787 5.23-1.12 8.11-1.1z" fill="#FDFDFD"/>
<path transform="translate(1081,556)" d="m0 0c0.33 0.99 0.66 1.98 1 3-0.99 0.495-0.99 0.495-2 1 0.99 0.33 1.98 0.66 3 1v-4h4c-3.33 8.55-3.33 8.55-7 11-1.19 2.05-1.19 2.05-2 4h-2c-0.433 1.21-0.433 1.21-0.875 2.44-1.12 2.56-1.12 2.56-3.12 3.56 0.33-1.65 0.66-3.3 1-5-1.65-0.33-3.3-0.66-5-1l2-1v-2h-4c-0.33 0.66-0.66 1.32-1 2v-3h-2c0.66-2.31 1.32-4.62 2-7h4v-2h2v2h3v3h2v-3h2c-0.33-1.32-0.66-2.64-1-4 1.32-0.33 2.64-0.66 4-1z" fill="#FDFDFD"/>
<path transform="translate(1197 1402)" d="m0 0c1.1 0.00902 2.19 0.018 3.32 0.0273 0.843 0.0116 1.69 0.0232 2.55 0.0352v9h-3c-0.247 0.619-0.495 1.24-0.75 1.88-1.52 2.59-2.42 3.18-5.25 4.12-2 0.0298-4 0.0328-6 0 0.113-2.31 0.241-4.63 0.375-6.94 0.0696-1.29 0.139-2.58 0.211-3.9 0.137-1.04 0.273-2.09 0.414-3.16 2.76-1.38 5.05-1.1 8.12-1.06z" fill="#FEFEFE"/>
<path transform="translate(227,1328)" d="m0 0h2c-1.38 2.83-2.86 5.56-4.5 8.25-0.423 0.706-0.846 1.41-1.28 2.14-0.402 0.531-0.804 1.06-1.22 1.61h-2c-0.217 0.67-0.433 1.34-0.656 2.03-1.78 3.92-4.22 7.07-6.84 10.5-0.534 0.703-1.07 1.41-1.62 2.13-3.37 4.43-6.79 8.84-10.2 13.2-4.8 6.22-9.33 12.6-13.7 19.1h-2c-0.0619 0.536-0.124 1.07-0.188 1.62-1.17 3.42-3.48 5.64-5.81 8.38-0.682 1.33-1.35 2.66-2 4-1.38 1.5-1.38 1.5-3 3-1.08 1.08-1.08 1.08-2.19 2.19-0.598 0.598-1.2 1.2-1.81 1.81-0.33-0.66-0.66-1.32-1-2h2c0.66-1.98 1.32-3.96 2-6h2v-2h2v-3h2c0.33-1.32 0.66-2.64 1-4h2c0.289-0.763 0.577-1.53 0.875-2.31 1.12-2.69 1.12-2.69 3.12-5.69h2v-3h2c0.258-0.715 0.516-1.43 0.781-2.17 1.29-3 2.85-5.47 4.72-8.14 0.608-0.883 1.22-1.77 1.84-2.68 0.547-0.664 1.09-1.33 1.66-2.01h2v-2h2c0.139-0.847 0.139-0.847 0.281-1.71 0.896-2.86 2.33-4.6 4.22-6.91 2.5-3.03 2.5-3.03 4.5-6.38h2v-3h2c0.289-0.578 0.577-1.15 0.875-1.75 1.04-2.08 2.08-4.17 3.12-6.25h2c0.33-1.32 0.66-2.64 1-4h2v-3h2v-2z" fill="#000100"/>
<path transform="translate(678 691)" d="m0 0c0.985 0.102 1.97 0.204 2.98 0.309 1.12 0.126 1.12 0.126 2.27 0.254 0.194 1.98 0.38 3.96 0.562 5.94 0.104 1.1 0.209 2.2 0.316 3.34 0.04 0.898 0.0799 1.8 0.121 2.72l-1 1c-1.53-0.0894-3.05-0.245-4.56-0.438-0.826-0.102-1.65-0.204-2.5-0.309-0.638-0.0838-1.28-0.168-1.93-0.254v-3c-2.97-0.495-2.97-0.495-6-1v-8c3.41-1.1 6.21-0.942 9.75-0.562z" fill="#FEFEFE"/>
<path transform="translate(1377 111)" d="m0 0c0.95-0.0142 1.9-0.0284 2.88-0.043 2.56 0.23 2.56 0.23 5.56 2.23-1.98 0.66-3.96 1.32-6 2 1.98 0.66 3.96 1.32 6 2v5c-6.11 0.113-12-0.104-18-1v-9c3.45-0.862 6.06-1.16 9.56-1.19z" fill="#FEFEFE"/>
<path transform="translate(1032,621)" d="m0 0h8c-1.12 2.97-2.22 5.33-4 8h-2c-0.371 0.804-0.371 0.804-0.75 1.62-4.24 8.05-4.24 8.05-8 9.25-0.743 0.0412-1.49 0.0825-2.25 0.125v-4c-0.66-0.99-1.32-1.98-2-3v-4h2c0.33-0.66 0.66-1.32 1-2l4 2v-2h2v-4h2v-2z" fill="#FDFDFD"/>
<path transform="translate(1297,1226)" d="m0 0c1.71 1.62 3.37 3.29 5 5v2h2v3h2c1.42 1.72 2.77 3.5 4.06 5.31 1.07 1.48 1.07 1.48 2.16 2.99 1.78 2.7 1.78 2.7 2.78 5.7h2v3h2v2h2c0.66 1.98 1.32 3.96 2 6h2c1.29 1.46 1.29 1.46 2.62 3.38 0.446 0.626 0.892 1.25 1.35 1.9 1.02 1.73 1.02 1.73 1.02 3.73h2c0.66 1.98 1.32 3.96 2 6h2c1.29 1.46 1.29 1.46 2.62 3.38 0.446 0.626 0.892 1.25 1.35 1.9 1.02 1.73 1.02 1.73 1.02 3.73h2v3c-2.44-0.75-2.44-0.75-5-2-0.688-1.88-0.688-1.88-1-4-0.637-1.35-1.3-2.69-2-4h-2v-3h-2c-3.92-4.14-6.68-8.67-9.47-13.6-1.6-2.48-3.43-4.3-5.53-6.37-1.16-1.82-1.16-1.82-2.06-3.56-1.55-2.76-2.72-4.33-4.94-6.44v-2h-2c-0.402-0.897-0.402-0.897-0.812-1.81-1.05-2.18-1.05-2.18-2.56-3.56-2.3-2.3-3.92-4.87-5.62-7.62v-2c-0.66-0.33-1.32-0.66-2-1l1-1z" fill="#000100"/>
<path transform="translate(1343,1288)" d="m0 0c0.99 0.495 0.99 0.495 2 1v2h2c1.63 2.09 3.14 4.18 4.62 6.38 0.63 0.905 0.63 0.905 1.27 1.83 3.1 4.53 3.1 4.53 3.1 6.8h2v3h2v2h2c0.978 1.38 1.95 2.77 2.85 4.21 1.23 1.91 2.55 3.72 3.9 5.54 2.25 3.25 2.25 3.25 2.25 5.25h2c1.63 2.09 3.14 4.18 4.62 6.38 0.42 0.603 0.84 1.21 1.27 1.83 3.1 4.53 3.1 4.53 3.1 6.8h2v3c-1.88-0.625-1.88-0.625-4-2-1.25-3.12-1.25-3.12-2-6h-3c-4-6.75-4-6.75-4-9-0.66-0.33-1.32-0.66-2-1-3.24-2.93-5.09-4.74-6-9-0.99-0.33-1.98-0.66-3-1v-4c-0.66-0.33-1.32-0.66-2-1-2.73-2.47-4.53-4.63-6-8-0.371-0.743-0.743-1.48-1.12-2.25-0.289-0.578-0.578-1.15-0.875-1.75h-2c-1.06-1.63-2.05-3.3-3-5-0.66-0.99-1.32-1.98-2-3v-3z" fill="#000100"/>
<path transform="translate(1205,396)" d="m0 0c0.99 0.33 1.98 0.66 3 1-1.23 1.52-1.23 1.52-2.48 3.07-1.09 1.35-2.18 2.7-3.27 4.05-0.539 0.665-1.08 1.33-1.63 2.02-3.8 4.72-7.26 9.45-10.2 14.7-0.454 0.701-0.908 1.4-1.38 2.12h-2c-0.99 2.48-0.99 2.48-2 5-0.66-0.33-1.32-0.66-2-1 0.66-1.32 1.32-2.64 2-4-1.65-0.33-3.3-0.66-5-1v-2c0.804-0.474 1.61-0.949 2.44-1.44 2.85-1.36 2.85-1.36 3.56-4.56h3c0.33-1.65 0.66-3.3 1-5h2c0.33-0.99 0.66-1.98 1-3 0.99 1.49 0.99 1.49 2 3 1.29-1.6 2.58-3.21 3.88-4.81 0.719-0.893 1.44-1.79 2.18-2.71 2.02-2.52 2.02-2.52 3.95-5.48z" fill="#FDFDFD"/>
<path transform="translate(274,1265)" d="m0 0c0.495 1.48 0.495 1.48 1 3-1.18 1.51-2.38 3.01-3.66 4.44-1.53 1.69-1.53 1.69-3.03 4.44-0.433 0.701-0.866 1.4-1.31 2.12h-2c-0.0947 0.789-0.0947 0.789-0.191 1.59-1.18 3.5-3.46 6.07-5.75 8.91-2.7 3.37-5.16 6.6-7.06 10.5-0.99 0.495-0.99 0.495-2 1-1.03 1.65-2.02 3.32-3 5-1.29 1.87-2.6 3.72-3.94 5.56-0.669 0.929-1.34 1.86-2.03 2.82-1.87 2.41-3.87 4.47-6.04 6.62-0.804 1.36-0.804 1.36-1.62 2.75-0.681 1.11-0.681 1.11-1.38 2.25h-2c-0.33 0.66-0.66 1.32-1 2 0.506-2.17 1-4 2-6h2c0.268-0.557 0.536-1.11 0.812-1.69 1.3-2.52 2.61-4.95 4.19-7.31h2c0.66-1.98 1.32-3.96 2-6h2c0.268-0.557 0.536-1.11 0.812-1.69 1.3-2.52 2.61-4.95 4.19-7.31h2c0.248-0.701 0.495-1.4 0.75-2.12 1.42-3.27 3.12-6.02 5.25-8.88h2c0.268-0.557 0.536-1.11 0.812-1.69 1.3-2.52 2.61-4.95 4.19-7.31h2v-3h2v-3h2c0.289-0.598 0.577-1.2 0.875-1.81 1.12-2.19 1.12-2.19 3.12-5.19z" fill="#000100"/>
<path transform="translate(692,1044)" d="m0 0 3 3c-0.33 0.99-0.66 1.98-1 3h3c-0.278-0.959-0.278-0.959-0.562-1.94-0.144-0.681-0.289-1.36-0.438-2.06 1-1 1-1 3.56-1.06 1.21 0.0309 1.21 0.0309 2.44 0.0625 0.33 1.32 0.66 2.64 1 4h-2c-0.268 0.743-0.536 1.48-0.812 2.25-1.14 2.64-2.28 4.61-4.19 6.75h-2c-0.66 1.98-1.32 3.96-2 6h-2l-1 2c-0.99-0.33-1.98-0.66-3-1v-2c0.66-0.33 1.32-0.66 2-1-0.66-0.99-1.32-1.98-2-3 0.0234-2.48 0.0234-2.48 0.375-5.19 0.111-0.901 0.222-1.8 0.336-2.73 0.0954-0.687 0.191-1.37 0.289-2.08 1.21 2.33 2.17 4.5 3 7 0.66 0.33 1.32 0.66 2 1-0.186-0.66-0.371-1.32-0.562-2-0.568-3.89-0.0303-7.11 0.562-11z" fill="#FDFDFD"/>
<path transform="translate(1384,1344)" d="m0 0h2v2h2c0.66 1.98 1.32 3.96 2 6h2c1.29 1.46 1.29 1.46 2.62 3.38 0.446 0.626 0.892 1.25 1.35 1.9 1.02 1.73 1.02 1.73 1.02 3.73h2c2 3 2 3 2 6h2c1.29 1.46 1.29 1.46 2.62 3.38 0.446 0.626 0.892 1.25 1.35 1.9 1.02 1.73 1.02 1.73 1.02 3.73h2v2h2c0.66 1.98 1.32 3.96 2 6h2c1.29 1.46 1.29 1.46 2.62 3.38 0.446 0.626 0.892 1.25 1.35 1.9 1.02 1.73 1.02 1.73 1.02 3.73h2v3c-4.22-1.81-7.23-4.11-9-8.44-0.33-0.846-0.66-1.69-1-2.56-1.91-2.61-3.87-4.87-6.19-7.12-1.81-1.88-1.81-1.88-2.81-4.88-0.66-0.33-1.32-0.66-2-1-2.01-2.94-3-4.39-3-8-0.897-0.309-0.897-0.309-1.81-0.625-2.98-1.87-3.66-4.26-5.19-7.38-0.99-0.33-1.98-0.66-3-1v-4h-2v-2h-2c-0.66-1.32-1.32-2.64-2-4l1-1z" fill="#000100"/>
<path transform="translate(1423,1396)" d="m0 0h2c2 3 2 3 2 6h2v2h2c3 4.38 3 4.38 3 7h2c2 3 2 3 2 6h2v2h2c0.978 1.38 1.95 2.77 2.85 4.21 1.23 1.91 2.55 3.72 3.9 5.54 2.25 3.25 2.25 3.25 2.25 5.25h2c1.29 1.46 1.29 1.46 2.62 3.38 0.446 0.626 0.892 1.25 1.35 1.9 1.02 1.73 1.02 1.73 1.02 3.73-4.9-1.38-6.57-3.72-9.25-7.94-0.686-1.06-1.37-2.12-2.08-3.21-1.67-2.85-1.67-2.85-2.67-5.85h-2c-1.02-1.66-2.02-3.32-3-5-0.66-0.33-1.32-0.66-2-1-0.217-0.959-0.217-0.959-0.438-1.94-0.424-2.44-0.424-2.44-3.56-4.06v-4c-0.593-0.238-1.19-0.477-1.8-0.723-2.67-1.55-3.78-3.14-5.45-5.71-0.521-0.782-1.04-1.56-1.58-2.37-1.17-2.19-1.17-2.19-1.17-5.19z" fill="#000100"/>
<path transform="translate(371,269)" d="m0 0h3c1.87 3.16 2.35 5.34 2 9-0.609 2.02-1.26 4.02-2 6-3.3 0.33-6.6 0.66-10 1v-9h3v-4h4v-3z" fill="#FBFCFD"/>
<path transform="translate(554 539)" d="m0 0c1.65 0.0174 1.65 0.0174 3.34 0.0352 1.66 0.0135 1.66 0.0135 3.35 0.0273 0.855 0.0116 1.71 0.0232 2.59 0.0352v9c-4.16 1.59-7.54 2.31-12 2-1-1-1-1-1.13-3.03 0.00258-0.815 0.00516-1.63 0.00781-2.47-0.00258-0.815-0.00516-1.63-0.00781-2.47 0.207-3.16 0.655-3.01 3.86-3.13z" fill="#FEFEFE"/>
<path transform="translate(912,1010)" d="m0 0c1.86 0.0898 3.71 0.246 5.56 0.438 1.52 0.153 1.52 0.153 3.07 0.309 1.17 0.126 1.17 0.126 2.37 0.254v10h-12c-0.0977-7.71-0.0977-7.71 0-10l1-1z" fill="#FEFEFE"/>
<path transform="translate(1116,494)" d="m0 0c0.66 0.33 1.32 0.66 2 1 1.54 0.225 3.08 0.408 4.62 0.562 0.817 0.0838 1.63 0.168 2.48 0.254 0.626 0.0606 1.25 0.121 1.9 0.184v1h-8c-0.33 0.66-0.66 1.32-1 2-2.97-0.33-5.94-0.66-9-1v6h2v4c-2.79 1.03-3.87 1.05-6.75 0.0625-0.743-0.351-1.48-0.701-2.25-1.06v-2c-0.66-0.33-1.32-0.66-2-1h5v2h3c-1.39-2.78-3.16-2.98-6-4v-2h-7v-1c1.05-0.0561 1.05-0.0561 2.12-0.113 1.37-0.0986 1.37-0.0986 2.76-0.199 0.905-0.058 1.81-0.116 2.74-0.176 2.75-0.3 2.75-0.3 4.38-3.51 3.23-1.08 5.62-1.14 9-1z" fill="#FBFCFD"/>
<path transform="translate(1394,81)" d="m0 0h29c-2.4 2.4-3.27 2.31-6.56 2.56-3.02 0.022-3.02 0.022-5.44 1.44 0.66 0.33 1.32 0.66 2 1-1.88 3.88-1.88 3.88-3 5-2.33 0.0409-4.67 0.0424-7 0v-4h-9v-1h9v-4h-9v-1z" fill="#FBFCFD"/>
<path transform="translate(1066,1006)" d="m0 0h6v10h-3v3h-9v-7h5c0.33-1.98 0.66-3.96 1-6z" fill="#FEFEFE"/>
<path transform="translate(926,658)" d="m0 0h12v7h-5v4h-7v-11z" fill="#FEFEFE"/>
<path transform="translate(1051 1193)" d="m0 0c1.01 0.0825 2.02 0.165 3.06 0.25 0.66 0.99 1.32 1.98 2 3 0.99 0.33 1.98 0.66 3 1v6c-3.67 1.18-7.17 1.07-11 1-1.16-3.49-1.14-6.34-1-10 1-1 1-1 3.94-1.25z" fill="#FEFEFE"/>
<path transform="translate(588,875)" d="m0 0h6v3h5v6h-2v2c-4.46 0.495-4.46 0.495-9 1v-12z" fill="#FEFEFE"/>
<path transform="translate(1401,102)" d="m0 0h8v5h-5v4c0.99 0.33 1.98 0.66 3 1h-3v4c-0.99 0.495-0.99 0.495-2 1v6h-2c-0.33-4.29-0.66-8.58-1-13h-5c0.33-0.66 0.66-1.32 1-2h4c0.144-0.619 0.289-1.24 0.438-1.88 0.562-2.12 0.562-2.12 1.56-4.12z" fill="#FBFCFD"/>
<path transform="translate(501 1e3)" d="m0 0c1.21 0.0406 1.21 0.0406 2.45 0.082 0.615 0.0348 1.23 0.0696 1.86 0.105v6l-2 1c-0.33 0.99-0.66 1.98-1 3-2.97-0.33-5.94-0.66-9-1-0.366-5.49-0.366-5.49 1.22-7.69 2.3-1.7 3.64-1.62 6.47-1.5z" fill="#FEFEFE"/>
<path transform="translate(391,1360)" d="m0 0h6v4h2c0.188 2.88 0.188 2.88 0 6-3.44 2.29-4.97 2.26-9 2-1-1-1-1-1.06-4.56 0.0206-1.13 0.0412-2.27 0.0625-3.44h2v-4z" fill="#FEFEFE"/>
<path transform="translate(445,1065)" d="m0 0h6c0.0269 2.31 0.0463 4.62 0.0625 6.94 0.0116 1.29 0.0232 2.58 0.0352 3.9-0.0977 3.16-0.0977 3.16-1.1 4.16-2 0.0408-4 0.0425-6 0-0.0272-1.75-0.0465-3.5-0.0625-5.25-0.0116-0.975-0.0232-1.95-0.0352-2.95 0.0857-2.45 0.391-4.46 1.1-6.8z" fill="#FEFEFE"/>
<path transform="translate(1267,1403)" d="m0 0c1.44 0.14 2.88 0.244 4.33 0.316 1.2 0.0628 1.2 0.0628 2.42 0.127 1.24 0.059 1.24 0.059 2.5 0.119 0.84 0.0432 1.68 0.0864 2.55 0.131 2.07 0.106 4.14 0.207 6.2 0.307v4h-3v-2h-2.52c-8.03 0-16-0.115-24-0.438-1.05-0.0393-2.09-0.0786-3.17-0.119-6.45-0.261-12.8-0.714-19.3-1.44v-1c0.696 0.00524 1.39 0.0105 2.11 0.0159 3.17 0.0209 6.34 0.0338 9.52 0.0466 1.64 0.0126 1.64 0.0126 3.32 0.0254 1.06 0.00322 2.13 0.00645 3.22 0.00977 0.974 0.00524 1.95 0.0105 2.95 0.0159 2.94-0.0479 2.94-0.0479 6-0.682 2.83-0.423 4.21-0.252 6.89 0.569z" fill="#FBFCFD"/>
<path transform="translate(631,647)" d="m0 0h7v4c1.65 0.33 3.3 0.66 5 1v6h-8v-4h-4v-7z" fill="#FEFEFE"/>
<path transform="translate(1231,315)" d="m0 0h1v9h3v2h9v4h7c-0.99 2.48-0.99 2.48-2 5 0.66 0.33 1.32 0.66 2 1-1.65 1.65-3.3 3.3-5 5v-9c-1.21 2.33-2.17 4.5-3 7-0.66-0.33-1.32-0.66-2-1 0.165-0.536 0.33-1.07 0.5-1.62 0.597-2.83 0.566-5.49 0.5-8.38-0.782-0.0606-1.56-0.121-2.37-0.184-1.01-0.0838-2.02-0.168-3.07-0.254-1.51-0.122-1.51-0.122-3.06-0.246-2.5-0.316-2.5-0.316-3.5-1.32-0.0982-1.66-0.13-3.33-0.125-5-0.00258-0.908-0.00516-1.81-0.00781-2.75 0.133-2.25 0.133-2.25 1.13-3.25z" fill="#FBFCFD"/>
<path transform="translate(952 1078)" d="m0 0c3.62 0.125 3.62 0.125 6.62 1.12v7c-2.99 1.49-5.71 1.12-9 1-0.66-0.33-1.32-0.66-2-1-0.0424-2.33-0.0409-4.67 0-7 1-1 1-1 4.38-1.12z" fill="#FEFEFE"/>
<path transform="translate(463,420)" d="m0 0c4.29 0.33 8.58 0.66 13 1v7c-4.92 0.167-8.5 0.248-13-2v-6z" fill="#FEFEFE"/>
<path transform="translate(567,918)" d="m0 0v6h-2v2c-2.96 1.48-5.74 1.06-9 1v-8c3.73-0.879 7.17-1.09 11-1z" fill="#FEFEFE"/>
<path transform="translate(648,1112)" d="m0 0c2.62 0.938 2.62 0.938 5 2-0.99 0.495-0.99 0.495-2 1v3h-2c-0.433 0.866-0.433 0.866-0.875 1.75-1.04 2.08-2.08 4.17-3.12 6.25h-2l-1 2c-0.66-0.33-1.32-0.66-2-1 0-2 0-2 2-4h-2v-2h2c-0.33-1.65-0.66-3.3-1-5 1.65 0.33 3.3 0.66 5 1v-4c0.66-0.33 1.32-0.66 2-1z" fill="#FDFDFD"/>
<path transform="translate(1038,512)" d="m0 0c6.75-0.125 6.75-0.125 9 1 0.36 5.4 0.36 5.4-1.12 7.88-2.66 1.59-4.84 1.33-7.88 1.12v-10z" fill="#FEFEFE"/>
<path transform="translate(229,1369)" d="m0 0c0.66 0.33 1.32 0.66 2 1v6c-2.41 1.2-3.95 1.1-6.62 1.06-1.23-0.0135-1.23-0.0135-2.48-0.0273-0.94-0.0174-0.94-0.0174-1.9-0.0352v-7c3.23-1.08 5.62-1.14 9-1z" fill="#FEFEFE"/>
<path transform="translate(1080,1035)" d="m0 0h15v4h-5v4h-5v-4c-1.65-0.33-3.3-0.66-5-1v-3z" fill="#FBFCFD"/>
<path transform="translate(1041,608)" d="m0 0h3v3h-2v2h2c0.33 0.99 0.66 1.98 1 3-0.33 0.66-0.66 1.32-1 2h-2c-0.33 0.99-0.66 1.98-1 3-0.887 0.144-1.77 0.289-2.69 0.438-3.23 0.49-3.23 0.49-6 1.31-2.31 0.25-2.31 0.25-4.12-1.19-0.392-0.516-0.784-1.03-1.19-1.56 7.43-2.43 7.43-2.43 11-1 1.61-3.65 2.45-7.05 3-11z" fill="#FBFCFD"/>
<path transform="translate(1135,457)" d="m0 0c2.47 0.495 2.47 0.495 5 1v7h2c1.12 4.75 1.12 4.75 0 7 1.65-0.33 3.3-0.66 5-1 0.33 1.32 0.66 2.64 1 4h-9v-11h-3c-0.33-2.31-0.66-4.62-1-7z" fill="#FBFCFD"/>
<path transform="translate(948,724)" d="m0 0c1.32 0.33 2.64 0.66 4 1-0.99 1.49-0.99 1.49-2 3 0.804 3.16 0.804 3.16 2 6-0.99 0.495-0.99 0.495-2 1v2c-0.66 0.66-1.32 1.32-2 2 0.165 0.804 0.33 1.61 0.5 2.44 0.5 2.56 0.5 2.56-1.5 5.56-0.99-0.33-1.98-0.66-3-1-0.33-2.31-0.66-4.62-1-7h3c0.66-4.95 1.32-9.9 2-15z" fill="#FEFEFE"/>
<path transform="translate(215,1383)" d="m0 0v9h-9c-0.36-5.4-0.36-5.4 1.12-7.88 2.66-1.59 4.84-1.33 7.88-1.12z" fill="#FEFEFE"/>
<path transform="translate(1134,385)" d="m0 0h6v10h-8v-7h2v-3z" fill="#FEFEFE"/>
<path transform="translate(671,979)" d="m0 0h6c-0.33 3.96-0.66 7.92-1 12h-6c0.33-3.96 0.66-7.92 1-12z" fill="#FEFEFE"/>
<path transform="translate(785,874)" d="m0 0c1 1 1 1 1.06 4.06-0.0206 0.969-0.0412 1.94-0.0625 2.94-3.3 0.33-6.6 0.66-10 1v-7c3.22-1.07 5.63-1.15 9-1z" fill="#FEFEFE"/>
<path transform="translate(312,223)" d="m0 0h10v6h-4v2h-6v-8z" fill="#FEFEFE"/>
<path transform="translate(661 1e3)" d="m0 0v8c-6.15 0.0977-6.15 0.0977-8 0-1-1-1-1-1.06-4.06 0.0206-0.969 0.0412-1.94 0.0625-2.94 3.2-1.07 5.66-1.07 9-1z" fill="#FEFEFE"/>
<path transform="translate(688,466)" d="m0 0c-0.33 2.64-0.66 5.28-1 8-4.54 1.45-8.18 2.24-13 2v-5c3.3-0.33 6.6-0.66 10-1 0.33-0.99 0.66-1.98 1-3 2-1 2-1 3-1z" fill="#FBFCFD"/>
<path transform="translate(407,1411)" d="m0 0h5c2.09 4.73 3.68 8.96 2 14h-3v-5h-4v-9z" fill="#FBFCFD"/>
<path transform="translate(921 1027)" d="m0 0c1.13 0.0206 2.27 0.0412 3.44 0.0625-0.33 2.97-0.66 5.94-1 9h-6c-1.37-2.73-1.13-4.98-1-8 1-1 1-1 4.56-1.06z" fill="#FEFEFE"/>
<path transform="translate(1124,184)" d="m0 0h7c-0.33 3.3-0.66 6.6-1 10h-6v-10z" fill="#FEFEFE"/>
<path transform="translate(372,299)" d="m0 0h7v9h-7v-9z" fill="#FEFEFE"/>
<path transform="translate(368,1379)" d="m0 0h4v7h-7v2h-3v-6c1.98-0.33 3.96-0.66 6-1v-2z" fill="#FBFCFD"/>
<path transform="translate(638,1020)" d="m0 0h7c1.35 2.71 1.07 5.01 1 8h-8v-8z" fill="#FEFEFE"/>
<path transform="translate(1104 209)" d="m0 0c2.05 0.0326 4.1 0.0651 6.15 0.0977v7h-9c-0.0425-2-0.0408-4 0-6 1-1 1-1 2.85-1.1z" fill="#FEFEFE"/>
<path transform="translate(668,769)" d="m0 0h7c-0.33 2.97-0.66 5.94-1 9h-6v-9z" fill="#FEFEFE"/>
<path transform="translate(457 403)" d="m0 0c1.13 0.0206 2.27 0.0412 3.44 0.0625 0.125 5.75 0.125 5.75-1 8-2 0.0425-4 0.0408-6 0-1-1-1-1-1.12-4 0.181-4.34 0.242-3.98 4.69-4.06z" fill="#FEFEFE"/>
<path transform="translate(162,1415)" d="m0 0h2c-0.812 2.94-0.812 2.94-2 6-0.99 0.33-1.98 0.66-3 1-0.683 1.66-1.35 3.33-2 5-1.51 2.45-3.07 4.86-5 7h-2c-0.268 0.784-0.536 1.57-0.812 2.38-1.19 2.62-1.19 2.62-4.19 4.62v-3h2c0.66-1.98 1.32-3.96 2-6h2v-2h2c0.268-0.743 0.536-1.48 0.812-2.25 1.14-2.64 2.28-4.61 4.19-6.75h2c0.144-0.619 0.289-1.24 0.438-1.88 0.562-2.12 0.562-2.12 1.56-4.12z" fill="#000100"/>
<path transform="translate(953 636)" d="m0 0c1.13 0.0206 2.27 0.0412 3.44 0.0625v7h-8c-0.0425-2-0.0408-4 0-6 1-1 1-1 4.56-1.06z" fill="#FEFEFE"/>
<path transform="translate(807,583)" d="m0 0h8c0.0425 2 0.0408 4 0 6-1 1-1 1-4.56 1.06-1.13-0.0206-2.27-0.0412-3.44-0.0625v-7z" fill="#FEFEFE"/>
<path transform="translate(1198,355)" d="m0 0c2.44 0.188 2.44 0.188 5 1 2.1 2.9 2 4.28 2 8-2.64-0.33-5.28-0.66-8-1-0.0424-2.33-0.0409-4.67 0-7 0.33-0.33 0.66-0.66 1-1z" fill="#FBFCFD"/>
<path transform="translate(1387,1444)" d="m0 0h9v6h-9v-6z" fill="#FEFEFE"/>
<path transform="translate(1056 1211)" d="m0 0c1.45 0.0309 1.45 0.0309 2.94 0.0625v8c-2 0.0425-4 0.0408-6 0-1-1-1-1-1.12-4 0.166-3.98 0.166-3.98 4.19-4.06z" fill="#FEFEFE"/>
<path transform="translate(951,793)" d="m0 0h6v9h-6v-9z" fill="#FEFEFE"/>
<path transform="translate(664 686)" d="m0 0c1.45 0.0309 1.45 0.0309 2.94 0.0625 0.0424 2.33 0.0409 4.67 0 7-1 1-1 1-4.06 1.06-0.969-0.0206-1.94-0.0412-2.94-0.0625-0.0424-2.33-0.0409-4.67 0-7 1-1 1-1 4.06-1.06z" fill="#FEFEFE"/>
<path transform="translate(1020,538)" d="m0 0h6v9h-6v-9z" fill="#FEFEFE"/>
<path transform="translate(513 475)" d="m0 0c1.13 0.0206 2.27 0.0412 3.44 0.0625 0.0425 2 0.0408 4 0 6-1 1-1 1-4.56 1.06-1.13-0.0206-2.27-0.0412-3.44-0.0625-0.0425-2-0.0408-4 0-6 1-1 1-1 4.56-1.06z" fill="#FEFEFE"/>
<path transform="translate(903,959)" d="m0 0h1c1.32 3.62 2 6.1 2 10h2v2h-8c-0.293-4.99-0.0589-7.96 3-12z" fill="#FBFCFD"/>
<path transform="translate(911,795)" d="m0 0h1v5h2v4h2v2h6v1c-1.79 0.027-3.58 0.0464-5.38 0.0625-0.998 0.0116-2 0.0232-3.02 0.0352-2.6-0.0977-2.6-0.0977-4.6-1.1-0.625-3.06-0.625-3.06-1-6h3v-5z" fill="#FBFCFD"/>
<path transform="translate(1014,907)" d="m0 0h2c-0.33 2.64-0.66 5.28-1 8h-10v-4c1.11-0.103 2.23-0.206 3.38-0.312 1.2-0.227 2.39-0.454 3.62-0.688 0.66-0.99 1.32-1.98 2-3z" fill="#FBFCFD"/>
<path transform="translate(1071,1230)" d="m0 0h7v7h-7v-7z" fill="#FEFEFE"/>
<path transform="translate(768 876)" d="m0 0c1.45 0.0309 1.45 0.0309 2.94 0.0625v7h-7c-0.0425-2-0.0408-4 0-6 1-1 1-1 4.06-1.06z" fill="#FEFEFE"/>
<path transform="translate(951,725)" d="m0 0c2.38-0.293 2.38-0.293 5.12-0.188 0.91 0.0271 1.82 0.0541 2.76 0.082 0.699 0.0348 1.4 0.0696 2.12 0.105-0.33 1.32-0.66 2.64-1 4h-7v5c-0.66-0.66-1.32-1.32-2-2v-3c-0.66-0.33-1.32-0.66-2-1 0.66-0.99 1.32-1.98 2-3z" fill="#FBFCFD"/>
<path transform="translate(968 612)" d="m0 0c1.45 0.0309 1.45 0.0309 2.94 0.0625v7h-7c-0.0425-2-0.0408-4 0-6 1-1 1-1 4.06-1.06z" fill="#FEFEFE"/>
<path transform="translate(252,111)" d="m0 0c2-0.0425 4-0.0408 6 0 1 1 1 1 1.06 4.06-0.0206 0.969-0.0412 1.94-0.0625 2.94h-7v-7z" fill="#FEFEFE"/>
<path transform="translate(430,1304)" d="m0 0c2-0.0425 4-0.0408 6 0 1 1 1 1 1.06 4.06-0.0206 0.969-0.0412 1.94-0.0625 2.94-2 0.0425-4 0.0408-6 0-1-1-1-1-1.06-4.06 0.0206-0.969 0.0412-1.94 0.0625-2.94z" fill="#FEFEFE"/>
<path transform="translate(925,800)" d="m0 0h2v3h7l-2 1v7c-0.99 0.33-1.98 0.66-3 1-0.33-1.65-0.66-3.3-1-5-0.99-0.33-1.98-0.66-3-1v-6z" fill="#FBFCFD"/>
<path transform="translate(1038,571)" d="m0 0c0.33 1.32 0.66 2.64 1 4h-7v3h-3v-3h-3v-2c1.44-0.337 2.87-0.67 4.31-1 0.801-0.186 1.6-0.371 2.43-0.562 2.26-0.438 2.26-0.438 5.26-0.438z" fill="#FBFCFD"/>
<path transform="translate(426,1349)" d="m0 0h4c0.66 2.97 1.32 5.94 2 9h-2v2h-3c-0.33-3.63-0.66-7.26-1-11z" fill="#FBFCFD"/>
<path transform="translate(460,1260)" d="m0 0h7v6h-7v-6z" fill="#FEFEFE"/>
<path transform="translate(479,1241)" d="m0 0h6v7h-6v-7z" fill="#FEFEFE"/>
<path transform="translate(558,1131)" d="m0 0h6v7h-6v-7z" fill="#FEFEFE"/>
<path transform="translate(1119 1e3)" d="m0 0h4c0.33 2.97 0.66 5.94 1 9h2v6c-1.32-0.33-2.64-0.66-4-1v-10h-2c-0.33-1.32-0.66-2.64-1-4z" fill="#FBFCFD"/>
<path transform="translate(970,878)" d="m0 0h6v7h-6v-7z" fill="#FEFEFE"/>
<path transform="translate(1149,146)" d="m0 0h6v7h-6v-7z" fill="#FEFEFE"/>
<path transform="translate(1016,1115)" d="m0 0v4h2v2h2v2h-7c-0.66-2.31-1.32-4.62-2-7 2-1 2-1 5-1z" fill="#FBFCFD"/>
<path transform="translate(1211,128)" d="m0 0h10v4h-11c0.33-1.32 0.66-2.64 1-4z" fill="#FBFCFD"/>
<path transform="translate(1e3 916)" d="m0 0h10v4h-10v-4z" fill="#FBFCFD"/>
<path transform="translate(605,562)" d="m0 0c0.33 0.66 0.66 1.32 1 2h2v7h-2v2h-2v-2h-2l3-9z" fill="#FBFCFD"/>
<path transform="translate(357,1456)" d="m0 0h13v3h-13v-3z" fill="#FBFCFD"/>
<path transform="translate(788,580)" d="m0 0c1.96-0.0808 3.92-0.139 5.88-0.188 1.64-0.0522 1.64-0.0522 3.3-0.105 0.931 0.0967 1.86 0.193 2.82 0.293 0.66 0.99 1.32 1.98 2 3h-15c0.33-0.99 0.66-1.98 1-3z" fill="#FBFCFD"/>
<path transform="translate(580,1176)" d="m0 0h6c0.382 1.66 0.714 3.32 1 5-1 1-1 1-4.06 1.06-1.45-0.0309-1.45-0.0309-2.94-0.0625v-6z" fill="#FEFEFE"/>
<path transform="translate(623,796)" d="m0 0c0.66 1.32 1.32 2.64 2 4-1.26 1.51-2.53 3.01-3.81 4.5-0.708 0.835-1.42 1.67-2.14 2.53-2.04 1.97-2.04 1.97-5.04 1.97v-2h2v-2h2c0.402-1.11 0.402-1.11 0.812-2.25 1.13-2.62 2.4-4.55 4.19-6.75z" fill="#ACADAD"/>
<path transform="translate(540,491)" d="m0 0c1.32 0.33 2.64 0.66 4 1v2c-1.32 0.33-2.64 0.66-4 1v3c-0.99 0.495-0.99 0.495-2 1-0.33 0.99-0.66 1.98-1 3h-3v-5c1.65-0.33 3.3-0.66 5-1 0.33-1.65 0.66-3.3 1-5z" fill="#FBFCFD"/>
<path transform="translate(1363,77)" d="m0 0h12c0.33 0.99 0.66 1.98 1 3h-14c0.33-0.99 0.66-1.98 1-3z" fill="#FBFCFD"/>
<path transform="translate(143,1441)" d="m0 0h2c-1.21 3.46-2.38 5.49-5 8-0.773 1.33-0.773 1.33-1.56 2.69-0.474 0.763-0.949 1.53-1.44 2.31h-2c-0.124 0.619-0.248 1.24-0.375 1.88-0.625 2.12-0.625 2.12-2.62 4.12v-4h2v-3h2c0.227-0.681 0.454-1.36 0.688-2.06 1.62-3.64 3.64-6.97 6.31-9.94z" fill="#000100"/>
<path transform="translate(570,1194)" d="m0 0h3v5c-1.79-0.141-3.58-0.288-5.38-0.438-0.998-0.0812-2-0.162-3.02-0.246-2.6-0.316-2.6-0.316-4.6-1.32 0.33-0.66 0.66-1.32 1-2 2.97 0.33 5.94 0.66 9 1v-2z" fill="#FBFCFD"/>
<path transform="translate(1118 1e3)" d="m0 0c0.66 1.32 1.32 2.64 2 4h2v6c0.99 0.33 1.98 0.66 3 1h-2v3c0.66 0.66 1.32 1.32 2 2h-4v-7h-2c-0.33-2.97-0.66-5.94-1-9z" fill="#FEFEFE"/>
<path transform="translate(944,729)" d="m0 0h3c1.16 4.05 0.837 6.22-1 10-1.32-0.33-2.64-0.66-4-1 0.66-1.32 1.32-2.64 2-4-0.66-0.33-1.32-0.66-2-1 0.66-1.32 1.32-2.64 2-4z" fill="#FBFCFD"/>
<path transform="translate(1268,1290)" d="m0 0h6v6h-6v-6z" fill="#FEFEFE"/>
<path transform="translate(917,1042)" d="m0 0h6v6h-6v-6z" fill="#FEFEFE"/>
<path transform="translate(985,841)" d="m0 0h6v6h-6v-6z" fill="#FEFEFE"/>
<path transform="translate(981 649)" d="m0 0c1.06 0.00677 1.06 0.00677 2.14 0.0137 1.74 0.0118 3.49 0.0297 5.23 0.0488v2c-8.41 0.495-8.41 0.495-17 1v-2c3.07-1.53 6.27-1.1 9.62-1.06z" fill="#FBFCFD"/>
<path transform="translate(869,523)" d="m0 0h6v6h-6v-6z" fill="#FEFEFE"/>
<path transform="translate(1079,453)" d="m0 0h6v6h-6v-6z" fill="#FEFEFE"/>
<path transform="translate(1143,375)" d="m0 0h6v6h-6v-6z" fill="#FEFEFE"/>
<path transform="translate(396,333)" d="m0 0h6v6h-6v-6z" fill="#FEFEFE"/>
<path transform="translate(352,262)" d="m0 0h6v6h-6v-6z" fill="#FEFEFE"/>
<path transform="translate(426 1376)" d="m0 0c0.799 0.00902 1.6 0.018 2.42 0.0273 0.603 0.0116 1.21 0.0232 1.83 0.0352 0.33 0.66 0.66 1.32 1 2-3.42 1.14-6.09 1.1-9.69 1.06-1.77-0.0135-1.77-0.0135-3.57-0.0273-0.904-0.0116-1.81-0.0232-2.74-0.0352 3.2-3.2 6.37-3.13 10.8-3.06z" fill="#FBFCFD"/>
<path transform="translate(415,1374)" d="m0 0h10v3l-5.96 0.684c-2.24 0.288-2.24 0.288-5.04 1.32 0.33-1.65 0.66-3.3 1-5z" fill="#FEFEFE"/>
<path transform="translate(976,855)" d="m0 0v4c-6.75 1.12-6.75 1.12-9 0v-3c2.96-1.48 5.74-1.06 9-1z" fill="#FBFCFD"/>
<path transform="translate(469,1349)" d="m0 0c1.32 0.33 2.64 0.66 4 1 0.33 1.98 0.66 3.96 1 6-1.32 0.99-2.64 1.98-4 3-1-7.75-1-7.75-1-10z" fill="#FBFCFD"/>
<path transform="translate(1160,1116)" d="m0 0h10c-0.33 0.99-0.66 1.98-1 3-3.47 1.16-6.36 1.07-10 1 0.33-1.32 0.66-2.64 1-4z" fill="#FBFCFD"/>
<path transform="translate(515,444)" d="m0 0h5v5h-3v6c-2.07-4-3.38-6.56-2-11z" fill="#FBFCFD"/>
<path transform="translate(410,382)" d="m0 0c5.88 1.88 5.88 1.88 7 3v-1h5v3h-10v-3h-2v-2z" fill="#FBFCFD"/>
<path transform="translate(275,1404)" d="m0 0h8v4h-9c0.33-1.32 0.66-2.64 1-4z" fill="#FBFCFD"/>
<path transform="translate(455,1328)" d="m0 0c1.29 7.43 1.29 7.43 0 11-0.33-0.66-0.66-1.32-1-2-0.99-0.33-1.98-0.66-3-1 0.33-0.66 0.66-1.32 1-2h2v-2h-3v-3c2-1 2-1 4-1z" fill="#FBFCFD"/>
<path transform="translate(769,938)" d="m0 0c0.33 0.66 0.66 1.32 1 2 2.02 0.652 2.02 0.652 4 1-0.66 2.31-1.32 4.62-2 7h-3v-10z" fill="#FEFEFE"/>
<path transform="translate(584,1160)" d="m0 0h9v3c-3.3 0.33-6.6 0.66-10 1 0.33-1.32 0.66-2.64 1-4z" fill="#FBFCFD"/>
<path transform="translate(533,917)" d="m0 0c0.688 1.69 0.688 1.69 1 4-1.31 2.75-1.31 2.75-3 5h-2c-0.99 1.49-0.99 1.49-2 3h-2v-2h2c0.247-0.722 0.495-1.44 0.75-2.19 1.36-3.06 3.08-5.28 5.25-7.81z" fill="#6E6F6E"/>
<path transform="translate(547,897)" d="m0 0h2c-1.33 6.46-5.59 10.4-10 15 0-4.03 1.61-5.84 4-9h2c0.144-0.619 0.289-1.24 0.438-1.88 0.562-2.12 0.562-2.12 1.56-4.12z" fill="#515251"/>
<path transform="translate(568,869)" d="m0 0c0.33 0.99 0.66 1.98 1 3-0.66 0.66-1.32 1.32-2 2 0.33 0.66 0.66 1.32 1 2-2.81 2.96-5.18 5.44-9 7l3-6h2c0.433-1.14 0.433-1.14 0.875-2.31 1.12-2.69 1.12-2.69 3.12-5.69z" fill="#595A5A"/>
<path transform="translate(1157,1307)" d="m0 0c0.99 0.33 1.98 0.66 3 1 0.354 1.33 0.685 2.66 1 4 1.48 1.73 1.48 1.73 3 3h-7v-8z" fill="#FBFCFD"/>
<path transform="translate(283,1252)" d="m0 0h2c-1.62 5.75-1.62 5.75-5 8-0.516 0.866-1.03 1.73-1.56 2.62-0.474 0.784-0.949 1.57-1.44 2.38h-2c1.33-2.67 2.67-5.33 4-8h2v-2h2v-3z" fill="#000100"/>
<path transform="translate(1278,1216)" d="m0 0h4v4h2v5h-4c-0.144-1.11-0.289-2.23-0.438-3.38-0.346-3.45-0.346-3.45-1.56-5.62z" fill="#FBFCFD"/>
<path transform="translate(344,1171)" d="m0 0c0.688 1.81 0.688 1.81 1 4-1.38 1.56-1.38 1.56-3 3-0.33 0.99-0.66 1.98-1 3-1.94 2.19-1.94 2.19-4 4h-2c0.66-1.65 1.32-3.3 2-5h2c0.268-0.557 0.536-1.11 0.812-1.69 1.29-2.51 2.72-4.91 4.19-7.31z" fill="#4C4C4C"/>
<path transform="translate(1131,1021)" d="m0 0c0.99 0.33 1.98 0.66 3 1 0.949 2.29 0.949 2.29 1.69 5.06 0.251 0.919 0.503 1.84 0.762 2.79 0.182 0.71 0.364 1.42 0.551 2.15h-4v-5h-2v-6z" fill="#FEFEFE"/>
<path transform="translate(706,970)" d="m0 0c2.64 0.66 5.28 1.32 8 2v3h-7c-0.33-1.65-0.66-3.3-1-5z" fill="#FBFCFD"/>
<path transform="translate(1448,1445)" d="m0 0c1.32 0.33 2.64 0.66 4 1v6c1.32 0.33 2.64 0.66 4 1-0.99 0.495-0.99 0.495-2 1-0.99-0.33-1.98-0.66-3-1v-2h-3v-6z" fill="#FBFCFD"/>
<path transform="translate(589,1144)" d="m0 0h9v3c-4.46 0.495-4.46 0.495-9 1v-4z" fill="#FBFCFD"/>
<path transform="translate(423,1065)" d="m0 0c0.33 0.66 0.66 1.32 1 2-0.777 2.16-0.777 2.16-1.94 4.62-0.38 0.817-0.761 1.63-1.15 2.48-0.451 0.94-0.451 0.94-0.91 1.9h-3c-0.33-0.66-0.66-1.32-1-2 0.33-0.66 0.66-1.32 1-2h2c0.289-0.598 0.577-1.2 0.875-1.81 1.12-2.19 1.12-2.19 3.12-5.19z" fill="#636363"/>
<path transform="translate(1089,488)" d="m0 0c3.3 0.33 6.6 0.66 10 1v2c-3.63 0.33-7.26 0.66-11 1 0.33-1.32 0.66-2.64 1-4z" fill="#FBFCFD"/>
<path transform="translate(998,841)" d="m0 0c0.99 0.33 1.98 0.66 3 1v7h-4c-0.0424-2.33-0.0409-4.67 0-7l1-1z" fill="#FEFEFE"/>
<path transform="translate(867,493)" d="m0 0h1c0.312 2.69 0.312 2.69 0 6-2.38 2.88-2.38 2.88-5 5h-2c1.81-3.78 3.91-7.37 6-11z" fill="#C4C4C5"/>
<path transform="translate(1271,289)" d="m0 0h1c0.779 5.02 1.13 8.98 0 14h-2c-0.0271-1.77-0.0464-3.54-0.0625-5.31-0.0116-0.986-0.0232-1.97-0.0352-2.99 0.0977-2.7 0.0977-2.7 1.1-5.7z" fill="#FEFEFE"/>
<path transform="translate(258,1404)" d="m0 0c0.33 1.32 0.66 2.64 1 4h-9v-2c2.64-0.66 5.28-1.32 8-2z" fill="#FBFCFD"/>
<path transform="translate(530,1249)" d="m0 0v3h2v3c-2.97-0.495-2.97-0.495-6-1v-4c2-1 2-1 4-1z" fill="#FBFCFD"/>
<path transform="translate(1290,1233)" d="m0 0h3c0.33 2.31 0.66 4.62 1 7h-4v-7z" fill="#FBFCFD"/>
<path transform="translate(539,1218)" d="m0 0h6v2h4c-0.33 1.32-0.66 2.64-1 4-0.66-0.33-1.32-0.66-2-1v-2c-2.31-0.33-4.62-0.66-7-1v-2z" fill="#FBFCFD"/>
<path transform="translate(1331,150)" d="m0 0h9v2h-2c-0.33 0.66-0.66 1.32-1 2-2.31-0.33-4.62-0.66-7-1 0.33-0.99 0.66-1.98 1-3z" fill="#FBFCFD"/>
<path transform="translate(1139,1013)" d="m0 0 2 1c-0.33 0.66-0.66 1.32-1 2-0.33-0.99-0.66-1.98-1-3z" fill="#000100"/>
<path transform="translate(953,763)" d="m0 0 2 1c-0.33 0.66-0.66 1.32-1 2-0.33-0.99-0.66-1.98-1-3z" fill="#000100"/>
<path transform="translate(790,544)" d="m0 0 2 1c-0.33 0.66-0.66 1.32-1 2-0.33-0.99-0.66-1.98-1-3z" fill="#000100"/>
<path transform="translate(1174,1061)" d="m0 0h2c-0.33 0.66-0.66 1.32-1 2-0.33-0.66-0.66-1.32-1-2z" fill="#000100"/>
<path transform="translate(1163,1046)" d="m0 0h2c-0.33 0.66-0.66 1.32-1 2-0.33-0.66-0.66-1.32-1-2z" fill="#000100"/>
<path transform="translate(1152,1031)" d="m0 0h2c-0.33 0.66-0.66 1.32-1 2-0.33-0.66-0.66-1.32-1-2z" fill="#000100"/>
<path transform="translate(1083,938)" d="m0 0h2c-0.33 0.66-0.66 1.32-1 2-0.33-0.66-0.66-1.32-1-2z" fill="#000100"/>
<path transform="translate(800,558)" d="m0 0h2c-0.33 0.66-0.66 1.32-1 2-0.33-0.66-0.66-1.32-1-2z" fill="#000100"/>
<path transform="translate(794,550)" d="m0 0h2c-0.33 0.66-0.66 1.32-1 2-0.33-0.66-0.66-1.32-1-2z" fill="#000100"/>
<path transform="translate(785,538)" d="m0 0h2c-0.33 0.66-0.66 1.32-1 2-0.33-0.66-0.66-1.32-1-2z" fill="#000100"/>
<path transform="translate(779,530)" d="m0 0h2c-0.33 0.66-0.66 1.32-1 2-0.33-0.66-0.66-1.32-1-2z" fill="#000100"/>
<path transform="translate(757,500)" d="m0 0h2c-0.33 0.66-0.66 1.32-1 2-0.33-0.66-0.66-1.32-1-2z" fill="#000100"/>
<path transform="translate(750,491)" d="m0 0h2c-0.33 0.66-0.66 1.32-1 2-0.33-0.66-0.66-1.32-1-2z" fill="#000100"/>
<path transform="translate(623,321)" d="m0 0h2c-0.33 0.66-0.66 1.32-1 2-0.33-0.66-0.66-1.32-1-2z" fill="#000100"/>
<path transform="translate(504,161)" d="m0 0h2c-0.33 0.66-0.66 1.32-1 2-0.33-0.66-0.66-1.32-1-2z" fill="#000100"/>
<path transform="translate(776,526)" d="m0 0 2 1z" fill="#000100"/>
<path transform="translate(761,506)" d="m0 0 2 1z" fill="#000100"/>
</svg>
